<svg xmlns="http://www.w3.org/2000/svg" xmlns:xlink="http://www.w3.org/1999/xlink" viewBox="0 0 485 485" style="enable-background:new 0 0 485 485;" xml:space="preserve"><path d="M118.5,115.3h6.9c10.5,0,19.1-8.6,19.1-19.1V43.6V23.9c0-10.5-8.5-19.1-19.1-19.1h-6.9c-10.5,0-19.1,8.5-19.1,19.1v19.7v52.7C99.4,106.8,108,115.3,118.5,115.3z M363.4,114.9h6.9c10.5,0,19.1-8.5,19.1-19.1V38.6V23.4c0-10.5-8.5-19.1-19.1-19.1h-6.9c-10.5,0-19.1,8.5-19.1,19.1v15.2v57.2C344.3,106.3,352.8,114.9,363.4,114.9z M453.9,43.6h-49v57.2c0,19.1-15.5,29.6-34.6,29.6h-6.9c-19.1,0-34.6-15.5-34.6-34.6V43.6H160.1v52.7c0,19.1-15.5,34.6-34.6,34.6h-6.9c-19.1,0-34.6-15.5-34.6-34.6V43.6H31c-17.1,0-31,13.9-31,31v375c0,17.1,13.9,31,31,31h422.9c17.1,0,31-13.9,31-31v-375C485,57.5,471,43.6,453.9,43.6z M453.9,449.6H31l0-283.2h422.9L453.9,449.6C453.9,449.6,453.9,449.6,453.9,449.6z M258.5,261.4h55.7c2.2,0,4-1.8,4-4v-48.3c0-2.2-1.8-4-4-4h-55.7c-2.2,0-4,1.8-4,4v48.3C254.5,259.6,256.3,261.4,258.5,261.4z M349.4,261.4h55.7c2.2,0,4-1.8,4-4v-48.3c0-2.2-1.8-4-4-4h-55.7c-2.2,0-4,1.8-4,4v48.3C345.4,259.6,347.2,261.4,349.4,261.4z M76.6,340.4h55.7c2.2,0,4-1.8,4-4v-48.3c0-2.2-1.8-4-4-4H76.6c-2.2,0-4,1.8-4,4v48.3C72.6,338.6,74.4,340.4,76.6,340.4z M167.6,340.4h55.7c2.2,0,4-1.8,4-4v-48.3c0-2.2-1.8-4-4-4h-55.7c-2.2,0-4,1.8-4,4v48.3C163.6,338.6,165.3,340.4,167.6,340.4z M258.5,340.4h55.7c2.2,0,4-1.8,4-4v-48.3c0-2.2-1.8-4-4-4h-55.7c-2.2,0-4,1.8-4,4v48.3C254.5,338.6,256.3,340.4,258.5,340.4z M349.4,340.4h55.7c2.2,0,4-1.8,4-4v-48.3c0-2.2-1.8-4-4-4h-55.7c-2.2,0-4,1.8-4,4v48.3C345.4,338.6,347.2,340.4,349.4,340.4z M132.3,363.2H76.6c-2.2,0-4,1.8-4,4v48.3c0,2.2,1.8,4,4,4h55.7c2.2,0,4-1.8,4-4v-48.3C136.3,364.9,134.5,363.2,132.3,363.2z M223.3,363.2h-55.7c-2.2,0-4,1.8-4,4v48.3c0,2.2,1.8,4,4,4h55.7c2.2,0,4-1.8,4-4v-48.3C227.3,364.9,225.5,363.2,223.3,363.2z M314.2,363.2h-55.7c-2.2,0-4,1.8-4,4v48.3c0,2.2,1.8,4,4,4h55.7c2.2,0,4-1.8,4-4v-48.3C318.2,364.9,316.4,363.2,314.2,363.2z M405.2,363.2h-55.7c-2.2,0-4,1.8-4,4v48.3c0,2.2,1.8,4,4,4h55.7c2.2,0,4-1.8,4-4v-48.3C409.2,364.9,407.4,363.2,405.2,363.2z"/></svg>
