<svg xmlns="http://www.w3.org/2000/svg" xmlns:xlink="http://www.w3.org/1999/xlink" viewBox="0 0 40 40"><path transform="translate(0 -4.289)" d="M9.8,13.9h0.6c0.9,0,1.7-0.7,1.7-1.7l0,0V6c0-0.9-0.7-1.7-1.7-1.7l0,0H9.8C8.9,4.3,8.2,5.1,8.2,6v0v6.3C8.2,13.2,8.9,13.9,9.8,13.9L9.8,13.9z M29.9,13.9h0.6c0.9,0,1.7-0.7,1.7-1.7c0,0,0,0,0,0V5.9c0-0.9-0.7-1.7-1.7-1.7l0,0h-0.6c-0.9,0-1.7,0.7-1.7,1.7c0,0,0,0,0,0v6.3C28.3,13.1,29,13.9,29.9,13.9L29.9,13.9z M37.4,7.7h-4v4.8c0,1.6-1.3,2.5-2.9,2.5H30c-1.6,0-2.9-1.3-2.9-2.9V7.7H13.2v4.4c0,1.6-1.3,2.9-2.9,2.9H9.8c-1.6,0-2.9-1.3-2.9-2.9V7.7H2.6C1.1,7.7,0,8.9,0,10.3v31.4c0,1.4,1.1,2.6,2.6,2.6h34.9c1.4,0,2.6-1.2,2.6-2.6V10.3C40,8.9,38.9,7.7,37.4,7.7z M37.4,41.7H2.6V18h34.9L37.4,41.7L37.4,41.7z M17,30.4h6.4c0.3,0,0.5-0.2,0.5-0.5v-5.6c0-0.3-0.2-0.5-0.5-0.5H17c-0.3,0-0.5,0.2-0.5,0.5l0,0v5.6C16.5,30.2,16.7,30.4,17,30.4C17,30.4,17,30.4,17,30.4z M26.9,30.4h6.4c0.3,0,0.5-0.2,0.5-0.5v-5.6c0-0.3-0.2-0.5-0.5-0.5h-6.4c-0.3,0-0.5,0.2-0.5,0.5v0v5.6C26.4,30.2,26.7,30.4,26.9,30.4z M13.5,32.5H7.1c-0.3,0-0.5,0.2-0.5,0.5v5.6c0,0.3,0.2,0.5,0.5,0.5h6.4c0.3,0,0.5-0.2,0.5-0.5v-5.6C14,32.7,13.8,32.5,13.5,32.5z M23.4,32.5H17c-0.3,0-0.5,0.2-0.5,0.5l0,0v5.6c0,0.3,0.2,0.5,0.5,0.5c0,0,0,0,0,0h6.4c0.3,0,0.5-0.2,0.5-0.5v-5.6C23.9,32.7,23.7,32.5,23.4,32.5z M33.4,32.5h-6.4c-0.3,0-0.5,0.2-0.5,0.5v0v5.6c0,0.3,0.2,0.5,0.5,0.5h0h6.4c0.3,0,0.5-0.2,0.5-0.5v0v-5.6C33.8,32.7,33.6,32.5,33.4,32.5L33.4,32.5z"/></svg>
