<svg xmlns="http://www.w3.org/2000/svg" viewBox="0 0 32 28"><path d="M1.5,22V5.3h6.6c1.3,0,2.3,0.2,3.2,0.7c0.9,0.4,1.6,1.1,2.1,1.9c0.5,0.8,0.7,1.8,0.7,2.9c0,1.1-0.2,2.1-0.7,2.9c-0.5,0.8-1.2,1.4-2.1,1.8s-2,0.6-3.3,0.6H3.5v-2.8h3.8c0.7,0,1.2-0.1,1.7-0.3c0.4-0.2,0.8-0.5,1-0.8s0.3-0.8,0.3-1.4c0-0.6-0.1-1-0.3-1.4s-0.6-0.7-1-0.9c-0.4-0.2-1-0.3-1.7-0.3H5V22H1.5z M10.5,14.4l4.2,7.6h-3.9l-4.1-7.6H10.5z M26.9,5.3h3.5v10.9c0,1.2-0.3,2.3-0.9,3.2c-0.6,0.9-1.4,1.6-2.4,2.1c-1,0.5-2.3,0.8-3.6,0.8c-1.4,0-2.6-0.3-3.6-0.8c-1-0.5-1.8-1.2-2.4-2.1c-0.6-0.9-0.9-2-0.9-3.2V5.3h3.5v10.6c0,0.6,0.1,1.2,0.4,1.7c0.3,0.5,0.7,0.9,1.2,1.2s1.1,0.4,1.8,0.4c0.7,0,1.3-0.1,1.8-0.4c0.5-0.3,0.9-0.7,1.2-1.2c0.3-0.5,0.4-1.1,0.4-1.7V5.3z"/></svg>
