<svg xmlns="http://www.w3.org/2000/svg" width="40" height="40" viewBox="0 0 40 40"><g transform="translate(0.012 0)"><rect width="40" height="40" rx="8" transform="translate(-0.012 0)" fill="#2787f5"/><path d="M55.545,61.961c.166-.554,0-.961-.79-.961H52.141A1.129,1.129,0,0,0,51,61.739a21.867,21.867,0,0,1-3.212,5.345c-.609.609-.886.8-1.219.8-.166,0-.407-.194-.407-.748V61.961c0-.665-.193-.961-.747-.961H41.312a.63.63,0,0,0-.665.6c0,.63.942.775,1.039,2.548V68c0,.844-.152,1-.485,1-.886,0-3.042-3.255-4.32-6.979-.251-.724-.5-1.016-1.17-1.016H33.1c-.747,0-.9.352-.9.739,0,.692.886,4.126,4.126,8.668,2.16,3.1,5.2,4.783,7.973,4.783,1.662,0,1.867-.373,1.867-1.017V71.829c0-.747.157-.9.684-.9.388,0,1.052.194,2.6,1.689,1.772,1.772,2.065,2.567,3.061,2.567h2.614c.747,0,1.12-.373.9-1.11a11.223,11.223,0,0,0-2.2-3.063c-.609-.72-1.523-1.5-1.8-1.883-.388-.5-.277-.72,0-1.163,0,0,3.185-4.486,3.517-6.009Z" transform="translate(-24.243 -47.727)" fill="#fff" fill-rule="evenodd"/></g></svg>