<svg xmlns="http://www.w3.org/2000/svg" width="40" height="40" viewBox="0 0 40 40"><g transform="translate(0 0)"><rect width="40" height="40" rx="8" transform="translate(0 0)" fill="#f7931e"/><path d="M130.58,57.9a5.973,5.973,0,1,0,5.973,5.973A5.973,5.973,0,0,0,130.58,57.9Zm0,8.442a2.469,2.469,0,1,1,2.469-2.469A2.469,2.469,0,0,1,130.58,66.343Z" transform="translate(-110.682 -49.057)" fill="#fff"/><path d="M123.72,204.351a9.711,9.711,0,0,0,3.9-1.68,1.624,1.624,0,0,0-2.032-2.534,7.053,7.053,0,0,1-4.058,1.186,7.223,7.223,0,0,1-4.09-1.186,1.624,1.624,0,0,0-2.032,2.534,9.931,9.931,0,0,0,4.027,1.7l-3.426,3.58a1.624,1.624,0,0,0,2.338,2.254l3.183-3.39,3.5,3.412a1.624,1.624,0,1,0,2.295-2.3Z" transform="translate(-101.713 -178.809)" fill="#fff"/></g></svg>