<svg xmlns="http://www.w3.org/2000/svg" width="41" height="40" viewBox="0 0 41 40"><g transform="translate(0.339 0)"><rect width="41" height="40" rx="8" transform="translate(-0.339 0)" fill="#279ed8"/><path d="M81.229,89.947,83.777,97s.319.66.66.66,5.415-5.279,5.415-5.279l5.642-10.9L81.32,88.126Z" transform="translate(-66.694 -68.811)" fill="#c8daea"/><path d="M97.823,138.878l-.489,5.2s-.2,1.593,1.388,0,3.117-2.821,3.117-2.821" transform="translate(-79.91 -115.933)" fill="#a9c6d8"/><path d="M55.31,78.987l-5.242-1.708s-.626-.254-.425-.83c.042-.119.125-.22.376-.394,1.161-.81,21.5-8.119,21.5-8.119a1.732,1.732,0,0,1,.913-.065.5.5,0,0,1,.337.368,1.675,1.675,0,0,1,.045.463c0,.135-.018.259-.03.455-.124,2-3.83,16.913-3.83,16.913s-.222.873-1.016.9a1.455,1.455,0,0,1-1.06-.41c-1.559-1.341-6.948-4.963-8.139-5.759a.227.227,0,0,1-.1-.161c-.017-.084.075-.188.075-.188s9.383-8.341,9.633-9.216c.019-.068-.054-.1-.152-.072-.623.229-11.427,7.052-12.619,7.8A.575.575,0,0,1,55.31,78.987Z" transform="translate(-40.729 -57.599)" fill="#fff"/></g></svg>