<?xml version="1.0" encoding="utf-8"?>
<!-- Generator: Adobe Illustrator 24.1.2, SVG Export Plug-In . SVG Version: 6.00 Build 0)  -->
<svg version="1.1" id="Слой_1" xmlns="http://www.w3.org/2000/svg" xmlns:xlink="http://www.w3.org/1999/xlink" x="0px" y="0px"
	 viewBox="0 0 1024 1024" style="enable-background:new 0 0 1024 1024;" xml:space="preserve">
<path d="M673.7,719.8c-2.7-4.9-5.4-9.8-8.1-14.6c-3-5.5-6-10.9-9-16.4c-1.7-3-1.6-2.9-4.8-1.3c-10.6,5.4-21,11.2-31.9,16.1
	c-17.4,7.8-35.6,13.2-54.5,16.1c-10.2,1.6-20.5,2.9-30.8,3.4c-46.7,2.4-90.6-7.8-131.8-30c-4.2-2.3-8.3-4.8-12.4-7.2
	c-0.1-0.1-0.3-0.1-0.9-0.2c-6.1,11.2-12.4,22.4-18.8,34.2c-30.9-19-57.2-42.6-79-71.3c-40.3-53-60.5-113.1-59.6-179.5
	c1-76,28-142.3,80.6-197.4c45.6-47.8,101.4-76.9,166.8-86.3c74.3-10.7,143.3,4.6,205.6,46.8c58.2,39.5,97.6,93.6,116.5,161.4
	C839.5,529.2,775.6,658.8,673.7,719.8z M645,380.2c-0.9,0-1.3-0.1-1.6,0c-12.4,2.4-24.9,4.9-37.3,7.4c-20.6,4.1-41.3,8.1-61.9,12.2
	c-7.1,1.4-14.4,2.1-21,5.3c-0.4,0.2-1.1,0.1-1.6,0c-4.8-1.3-9.6-3-14.5-4c-35-7-70-13.9-105-20.8c-1.8-0.4-2.6,0.1-2.5,1.9
	c0,0.8,0,1.6,0,2.4c0,37.5,0,75,0,112.5c0,15.1,0,30.2,0,45.3c0,1.9,0.4,3.1,2.6,3.5c18,3.3,36,6.7,54,10.1c5.2,1,10.4,1.9,15.3,3.6
	c6.7,2.2,9.9,7.5,10.1,14.2c0.1,2.4-0.9,2.9-3.1,2.9c-31.3-0.1-62.7,0-94,0c-3.8,0-3.8,0-3.8-3.7c0-63.5,0-127,0-190.5
	c0-3.4,0-3.4-3.3-3.4c-6.4,0-12.8,0-19.2,0c-3.1,0-3.2,0.1-3.2,3.2c0,15.7,0,31.3,0,47c0,56.4,0,112.7,0,169.1c0,3.6,0,3.6,2.8,3.6
	c48.9,0,97.9,0,146.8,0c2.1,0,2.8-0.6,2.8-2.7c-0.2-9.9-0.2-19.8-0.4-29.7c-0.2-7.8-3-14.7-8.1-20.5c-7.4-8.6-17.2-13.2-28-15.6
	c-14.1-3.1-28.3-5.6-42.5-8.1c-2.5-0.4-3-1.4-3-3.7c0.1-36,0-72,0-107.9c0-0.5,0-1,0-1.4c-0.1-1.6,0.7-1.9,2.1-1.6
	c25.9,5.1,51.8,10.2,77.6,15.4c2.6,0.5,5.2,1.8,7.2,3.4c3.8,2.9,4.4,7.2,4.4,11.6c0,52,0,103.9,0,155.9c0,0.9,0,1.8,0,2.6
	c-0.1,1.6,0.5,2.4,2.2,2.3c2.4-0.1,4.8-0.1,7.2,0c1.4,0,2.1-0.4,2-1.9c-0.1-0.8,0-1.6,0-2.4c0-52.1,0-104.3,0-156.4
	c0-8.7,4.1-13.8,12.4-15.4c25.6-5.1,51.3-10.1,76.9-15.2c1.9-0.4,2.4,0.2,2.4,2c0,36.6,0,73.2,0,109.9c0,1.6-0.6,2.3-2.1,2.6
	c-9.8,1.8-19.6,3.6-29.4,5.4c-9,1.7-18.1,3.2-26.5,7.1c-15.2,7-24,18.4-24.1,35.7c0,8.5,0,17,0,25.4c0,3.2,0,3.2,3.3,3.2
	c48.5,0,97.1,0,145.6,0c0.9,0,1.9,0,2.9,0c0.1-1.1,0.1-1.8,0.1-2.6c0-72.5,0-145,0.1-217.6c0-2.4-0.9-2.8-2.9-2.8
	c-6.3,0.1-12.6,0-18.9,0c-3.6,0-3.6,0-3.6,3.5c0,63.3,0,126.6,0,190c0,4.4,0.4,4.1-3.9,4.1c-30.6,0-61.2,0-91.9,0
	c-5.5,0-5.6-0.1-5-5.6c0-0.4,0.2-0.8,0.3-1.2c1.8-6.8,6.8-10.2,13.2-11.4c21.6-4.3,43.3-8.4,65-12.5c2.4-0.5,3.2-1.3,3.2-3.8
	c-0.1-53-0.1-106-0.1-159C645,382.2,645,381.3,645,380.2z M672.6,318.3c-1-0.7-1.8-1.4-2.7-2c-7.2-5.3-14.4-10.6-21.6-15.9
	c-1.5-1.1-2-2.1-1.5-4c2.4-9.3,4.6-18.7,7.1-28.1c0.5-2,0.1-3-1.8-3.9c-8-3.8-16-7.7-23.8-11.8c-2.3-1.2-3.4-0.8-4.9,1.1
	c-5.7,7.7-11.7,15.2-17.5,22.8c-0.8,1-1.4,1.4-2.8,0.9c-6.5-2.3-13-4.5-19.5-6.6c-1.9-0.6-2.6-1.5-2.5-3.6c0.4-9.8,0.7-19.6,1-29.4
	c0.1-1.5-0.3-2.4-1.9-2.7c-10.2-1.9-20.4-3.9-30.5-5.9c-2-0.4-2.8,0.2-3.4,2.1c-3.3,9.8-6.8,19.6-10.1,29.5c-0.6,1.7-1.4,2-3.1,2
	c-7.1-0.2-14.2-0.3-21.3,0c-2,0.1-2.9-0.3-3.5-2.1c-3.2-9.5-6.5-19-9.7-28.5c-1.1-3.3-1.1-3.3-4.3-2.6c-9.5,1.9-19.1,3.8-28.6,5.5
	c-2.3,0.4-3,1.2-2.9,3.5c0.4,9.6,0.6,19.1,1.1,28.7c0.1,2.2-0.7,3.1-2.7,3.7c-6.5,2-12.9,4.2-19.3,6.5c-1.6,0.6-2.2,0.2-3.1-1
	c-6-7.8-12-15.6-17.9-23.4c-1.1-1.5-2-1.6-3.6-0.8c-8.2,4.2-16.4,8.3-24.7,12.3c-1.9,0.9-2.1,2-1.6,3.7c2.3,9.1,4.5,18.3,7,27.3
	c0.7,2.6,0,3.7-2.1,5.2c-7.3,5.2-14.4,10.6-21.6,15.9c-1.6,1.2-1.6,2.2-0.2,3.7c8.5,9.7,16.9,19.4,25.2,29.2
	c1.2,1.4,2.4,1.9,4.1,1.8c7.8-0.1,15.5-0.1,23.3,0c2.3,0,4.3-0.6,6.3-1.8c24.4-14.7,50.8-23.4,79.3-25.4c11.8-0.8,23.6-0.3,35.3,1.7
	c23.3,3.9,45.1,11.9,65.4,24.2c1.2,0.7,2.7,1.2,4,1.2c8.2,0.1,16.5,0,24.7,0.1c1.8,0,3-0.6,4.1-1.9c7.3-8.5,14.6-17,21.9-25.5
	C669,322.4,670.6,320.6,672.6,318.3z M698.4,690.7c79.4-61.9,128.6-178.2,93.1-298.4c-18.3-61.8-54.2-111.7-106.7-149
	c-57.3-40.7-121.4-57.1-191.3-50.4C373,204.5,264.6,298,244.8,430.3c-8.9,59.6,0.4,116.5,27.8,170.3c18,35.3,42.6,65.2,73.4,90.2
	c2.5-3,2.6-3.4,0.5-5.1c-22.5-18.6-41.7-40.2-57.5-64.9c-26.6-41.8-40.8-87.6-43.1-137c-0.4-8.8-0.2-17.6,0.4-26.3
	c0.9-11.3,2-22.7,3.8-33.9c5.6-33.2,17.3-64.2,34.7-93c30.3-50,72.1-87.1,125.4-111.1c32.2-14.5,66-22.1,101.2-23.5
	c10.8-0.4,21.7,0.3,32.5,0.8c12.4,0.6,24.5,2.6,36.6,5.2c45.8,9.9,86.5,30.2,122,60.9c39.7,34.3,67.6,76.5,83.5,126.6
	c8.4,26.3,12.5,53.2,12.7,80.7c0.1,9.6-0.4,19.2-1.4,28.7c-1.3,11.6-2.8,23.3-5.4,34.7c-14.1,61.1-45.5,111.6-93.5,151.9
	C695.9,687.6,695.8,687.6,698.4,690.7z M528,653.9c0-1.9-0.2-3.9,0.1-5.9c0.3-2.2,2.4-3.7,4.6-3.7c2.9,0,4.5,1.4,5.3,4.8
	c0.5,2.2,2,2.9,5.1,2.4c2.1-0.4,2.6-1.8,2.4-3.7c-0.8-5.3-4-8.6-9.7-9.8c-7.3-1.5-16,2.4-15.5,12.3c0.3,6.1,0,12.3,0.1,18.4
	c0,6.5,4.5,11.3,11,12c7.3,0.7,13.1-2.8,14.6-9.1c0.4-1.7,0.5-3.5,0.6-5.2c0.1-6.2-3-11.4-9.5-12.4
	C534.2,653.6,531.3,653.9,528,653.9z M507.3,664.8c0,0.8,0,1.9,0,3.1c0,5.1-3.4,7.6-8.3,5.9c-1.2-0.4-2.3-1.2-3.3-1.9
	c-2.2-1.7-3.7-1.7-5.3,0.2c-1.4,1.6-1.2,3.2,0.8,5c3.3,3.1,7.3,3.9,11.7,3.8c6.7-0.3,11.8-5.2,12-11.9c0.1-6.5,0.1-12.9,0-19.4
	c-0.1-3.8-1.6-7.2-4.9-9.4c-4.6-3-9.4-3.3-14.3-1.1c-4.8,2.1-6.7,6.2-6.9,11.1c-0.3,7.9,2.4,13.1,10.3,14.5
	C501.6,665.2,504.4,664.8,507.3,664.8z M562.5,680.2L562.5,680.2c3,0,6.1,0.1,9.1,0c2.3-0.1,3.4-1.3,3.3-3.5c-0.1-2.1-1.1-3.1-3.3-3
	c-3.5,0.1-7,0-10.5,0c-3,0-3.8-1.3-2.4-4c0.5-0.9,1.3-1.9,2.2-2.4c1.7-1.1,3.6-2,5.5-2.9c4.9-2.2,7.8-5.8,8.5-11.2
	c0.8-5.9-1.1-11.1-5.3-13.7c-3-1.9-6.4-2-9.7-1.6c-5.5,0.6-9.7,5.5-9.7,11c0,2.9,1,3.9,3.9,3.7c2.7-0.1,3.4-0.9,3.7-4.2
	c0.2-2,1.2-3.4,3.1-3.8c2.1-0.5,4.2-0.5,5.6,1.6c2.2,3.2,1.2,9.1-2.1,11.1c-1.9,1.2-4.1,2.1-6.2,3.2c-4.1,2.1-6.9,5.2-7.4,9.9
	c-0.2,2.1-0.1,4.3-0.1,6.5c0,2.7,0.6,3.4,3.3,3.5C556.7,680.2,559.6,680.2,562.5,680.2z M483.3,659.6c0-5.8,0-11.5,0-17.3
	c0-3.4-1.2-4.4-4.6-4s-6.8,0.9-10.2,1.4c-2.6,0.4-3.3,1.3-2.9,4.1c0.3,2.1,1.2,2.8,3.7,2.5c1.1-0.1,2.2-0.2,3.3-0.4
	c2.7-0.4,3.1-0.2,3.1,2.6c0,9.4,0,18.9,0,28.3c0,2.8,1.2,4,3.9,3.9c2.7,0,3.7-1,3.7-3.8C483.3,671.1,483.3,665.3,483.3,659.6z
	 M434.4,658.3c-5.5,0-11,0.1-16.5,0c-1.9,0-2.6,0.6-2.6,2.5s0.9,2.3,2.6,2.3c10.9,0,21.9,0,32.8,0c1.6,0,2.5-0.3,2.5-2.2
	s-0.5-2.5-2.4-2.5C445.3,658.4,439.8,658.3,434.4,658.3z M610.2,658.3c-5.4,0-10.9,0-16.3,0c-1.7,0-2.6,0.3-2.7,2.3
	c0,2,0.8,2.4,2.6,2.4c10.9,0,21.7,0,32.6,0c1.7,0,2.7-0.3,2.7-2.3c0-1.9-0.9-2.4-2.6-2.4C621,658.3,615.6,658.3,610.2,658.3z
	 M416.7,744.6c-4.6,11.9-9.1,23.6-13.8,35.6c-26.8-10.4-51.5-24-74.7-41c2.5-3.4,4.8-6.6,7.3-9.9c3.9,2.6,7.5,5.2,11.2,7.7
	c14.1,9.5,29,17.8,44.5,24.8c0.8,0.4,1.6,0.6,2.4,1c1.3,0.7,1.9,0,2.4-1.1c1.2-2.9,2.5-5.7,3.8-8.5c0.8-1.7,0.2-2.3-1.3-3.1
	c-6.4-3.1-12.7-6.3-19.2-9.4c-2.2-1-2.1-2-1.1-3.8c5.3-9.6,10.6-19.1,15.8-28.8c1-1.8,1.8-2.1,3.6-1.1
	c22.1,11.9,45.4,20.4,69.9,25.4c0.8,0.2,1.7,0.5,2.7,0.8c-1.3,6.7-2.6,13.3-3.9,20c-1,5.1-2.1,10.1-3,15.2c-0.3,1.9-1.3,2.1-2.8,1.7
	c-7-1.7-14.1-3.4-21.1-5.2c-1.6-0.4-2.3-0.2-2.7,1.5c-0.8,3-1.7,6-2.6,9c-0.4,1.4-0.1,2.3,1.5,2.6c12.2,2.7,24.4,5.7,36.7,8
	c8.9,1.7,18,2.3,27,3.4c1.8,0.2,2.9-0.1,2.9-2.3c0-2.9,0.2-5.9,0.5-8.8c0.2-2.1-0.7-2.5-2.6-2.6c-7.2-0.7-14.4-1.6-21.6-2.3
	c-1.5-0.2-1.8-0.7-1.6-2.2c1.8-11.1,3.4-22.2,5.1-33.3c0.3-1.8,0.7-2.6,3.1-2.3c7.2,1,14.4,1.7,21.6,2.1c8.4,0.4,16.8,0.8,25.1,0.4
	c9.5-0.4,19.1-1.5,28.6-2.5c1.5-0.1,2,0.1,2.2,1.5c1.7,11.3,3.4,22.5,5.2,33.8c0.3,2.1-0.8,2.5-2.3,2.7c-6.6,0.7-13.1,1.5-19.7,2
	c-3.8,0.3-3.9,0.2-3.8,4c0.1,2.5,0.4,4.9,0.4,7.4c0,2,0.9,2.7,2.8,2.5c5.1-0.5,10.2-0.9,15.2-1.5c14.8-1.9,29.4-4.6,43.8-8.5
	c6.8-1.8,6.9-1.8,4.8-8.7c-1.8-6.2-1.8-6.1-8-4.5c-6.3,1.6-12.7,3.1-19.3,4.7c-0.9-4.1-1.7-7.9-2.4-11.7c-1.5-7.7-3-15.5-4.6-23.2
	c-0.4-1.9-0.2-2.9,2-3.3c22.1-4.6,43.3-12,63.6-22.1c2.9-1.5,5.8-3,8.9-4.6c6.2,11.2,12.2,22.2,18.4,33.6c-2.7,1.4-5.2,2.8-7.8,4.1
	c-4.6,2.3-9.2,4.5-13.8,6.6c-1.6,0.7-2,1.4-1.2,3.1c1.3,2.6,2.5,5.2,3.5,7.9c0.8,2.1,1.7,2.2,3.6,1.3c14.7-6.7,28.9-14.4,42.4-23.2
	c4.3-2.8,8.6-5.8,12.8-8.8c1.4-1,2.2-1,3.3,0.5c1.8,2.7,3.8,5.3,5.9,8.1c-23.1,16.9-47.8,30.5-74.7,41c-4.7-12-9.2-23.7-13.8-35.5
	c7.7-3.4,15.3-6.8,23.1-10.3c-2-4-3.7-7.6-5.6-11c-0.2-0.4-1.8-0.5-2.5-0.2c-8.1,3.4-16,7.2-24.3,10.2c-9.1,3.3-18.5,6-27.8,8.7
	c-2.4,0.7-3.1,1.5-2.3,3.9c0.8,2.7,1.4,5.4,2,8.1c0.3,1.4,0.9,2,2.5,1.5c6.7-2,13.5-3.9,20.2-5.9c1.3-0.4,2.2-0.5,2.7,1.1
	c3.7,11.1,7.6,22.2,11.4,33.3c0.1,0.3,0.1,0.6,0.1,1.2c-2.8,0.9-5.7,1.9-8.5,2.8c-17.5,5.3-35.3,9.5-53.5,11.5
	c-9.4,1.1-18.9,1.7-28.3,2.5c-1.7,0.1-3.3,0.2-5,0.4c-1.6,0.2-2.3-0.5-2.3-2.2c-0.1-7.7-0.3-15.5-0.5-23.2
	c-0.1-3.6-0.2-7.2-0.4-10.8c-0.1-1.8,0.7-2.2,2.4-2.3c7-0.4,14-0.9,21-1.4c1.3-0.1,1.8-0.5,1.6-1.9c-0.4-3.3-0.6-6.7-1.1-10
	c-0.1-0.6-1.2-1.5-1.8-1.5c-2.5,0-5.1,0.4-7.6,0.5c-9.2,0.3-18.3,0.9-27.5,0.8c-7.2,0-14.5-0.8-21.7-1.4c-1.9-0.2-2.5,0.4-2.6,2.3
	c-0.2,2.9-0.6,5.9-0.9,8.8c-0.2,1.6,0.3,2.3,2.1,2.4c6.9,0.4,13.8,1,20.8,1.4c1.7,0.1,2.2,0.7,2.1,2.3c-0.2,10.5-0.1,20.9-0.6,31.4
	c-0.3,5,0.9,5.1-5.3,4.5c-5.6-0.5-11.2-0.5-16.7-1.2c-11.8-1.5-23.6-2.7-35.2-5.1c-12.7-2.6-25.2-6.4-37.7-9.8c-3-0.8-3-0.9-2-3.9
	c3.5-10.5,7.1-21,10.6-31.5c0.2-0.5,0.4-1,0.7-1.8c3.1,0.9,6.1,1.9,9.1,2.8c4.3,1.2,8.6,2.4,12.9,3.6c1.6,0.5,2.5,0.1,2.8-1.7
	c0.6-2.9,1.3-5.8,2.1-8.6c0.6-1.9-0.1-2.6-1.9-3c-13.7-3.4-27.1-7.9-40.1-13.4c-4.2-1.8-8.3-3.6-12.4-5.6c-1.7-0.8-2.6-0.7-3.3,1.1
	c-1.2,2.6-2.5,5.2-3.8,7.7c-0.9,1.7-0.7,2.7,1.2,3.5c6.2,2.6,12.3,5.4,18.4,8.1C415,743.9,415.7,744.2,416.7,744.6z M319,250.2
	c-0.7,0.9-1.1,1.7-1.8,2c-0.6,0.2-1.8,0.1-2.1-0.3c-1.6-2.2-2.8-1.2-4.2,0.2c-1.8,1.9-3.7,3.7-5.6,5.5c-1,0.9-1.3,1.7-0.2,2.8
	c1.2,1,1.8,2.1,0.4,3.4s-2.3,0.2-3.2-0.7c-0.8-0.8-1.6-1.5-2.3-2.4c-0.3-0.4-0.7-1.2-0.6-1.4c1.3-1.9,0-3.3-0.9-4.5
	c-2.2-2.9-4.6-5.7-7.1-8.4c-3.9-4.2-4-7.1,0-11.1c4.7-4.7,4.7-4.8,9.4-0.1c3.2,3.2,6.4,6.5,9.5,9.8c0.8,0.8,1.5,1.8,2.8,0.7
	c0.2-0.1,0.6-0.2,0.7-0.1C315.5,246.9,317.1,248.5,319,250.2z M304.2,255.1c1.3-1.5,2.7-3.2,4-5c0.3-0.4,0.2-1.6-0.2-2
	c-3.7-3.9-7.4-7.7-11.2-11.5c-0.3-0.3-1-0.7-1.4-0.6c-2.4,0.6-3.8,4.3-2.2,6.2C296.6,246.4,300.1,250.4,304.2,255.1z M812.7,604.7
	c-2.1,0.2-4,0.8-5.7,0.5c-5-1-7.1-5.3-5.2-10c0.9-2.1,1.9-4.2,2.7-6.4c0.6-1.6,1.4-2.1,3.1-1.3c6.5,2.9,13,5.7,19.5,8.5
	c1.3,0.6,1.8,1.3,1.1,2.8c-1,2.2-1.9,4.4-2.9,6.6c-1.2,2.6-3,4.2-6.1,4.2c-3-0.1-5.2-1.4-6.3-4.2
	C812.9,604.9,812.7,604.7,812.7,604.7z M807,591.5c-0.8,1.8-1.6,3.2-2,4.7c-0.9,2.7,0.9,5.1,3.7,5.4c2.6,0.2,6.1-3.8,5.6-6.4
	c-0.1-0.4-0.5-0.8-0.9-1C811.4,593.3,809.3,592.5,807,591.5z M819.4,605.4c2.1,0,5.5-3.4,4.6-5.6c-0.7-1.6-3.5-2.4-5.5-3.3
	c-0.8-0.4-3.1,3.6-3.1,5.4C815.4,603.8,817.2,605.4,819.4,605.4z M614.9,167.4c1.9,2.5,2.4,5,1.1,7.9c-1.5,3.2-4.5,4.7-8,3.9
	c-2.5-0.6-4.9-1.4-7.4-2c-1.6-0.4-2.1-1.2-1.6-2.7c2-6.8,3.9-13.6,5.8-20.4c0.4-1.5,1.1-2.2,2.8-1.6c2.2,0.8,4.6,1.4,6.9,2
	c2.6,0.7,4.4,2.3,4.8,5.1c0.4,3-0.3,5.6-3.2,7.1C615.6,166.8,615.3,167.1,614.9,167.4z M612.8,171.5c0-2.6-3.1-4.9-6.6-4.8
	c-0.9,0-2.9,4.8-2.9,6.8c0,1.1,3.3,2.6,5.6,2.6C611.1,176,612.8,174,612.8,171.5z M615.2,160.7c0-2.5-2.7-4.4-6.1-4.4
	c-0.9,0-3.2,4.4-2.6,6.1c0.8,2.2,3.3,2,5.2,2.2C614,164.7,615.3,163.1,615.2,160.7z M396.5,179.6c4,1.3,6.2,3.8,6.2,7.2
	c0,3.5-2.1,5.5-5.1,6.8c-2.1,0.9-4.1,1.8-6.1,2.8c-1.3,0.6-2.1,0.2-2.7-1c-3-6.5-5.9-13.1-8.9-19.6c-0.6-1.4-0.3-2.3,1.1-2.9
	c2.1-0.9,4.2-1.9,6.3-2.8c2.6-1.1,5.2-1.2,7.4,0.8c2.2,2,2.8,4.5,1.9,7.4C396.6,178.7,396.6,179.1,396.5,179.6z M395.1,181.9
	c-2.4,1.1-4.2,1.9-5.9,2.8c-0.2,0.1-0.4,0.6-0.3,0.8c1,2.2,1.7,4.5,3.1,6.3c0.4,0.5,3-0.9,4.6-1.4c0.3-0.1,0.6-0.3,0.8-0.5
	c1.3-1.2,1.9-2.7,0.9-4.3C397.5,184.3,396.3,183.2,395.1,181.9z M389.6,172.3c-1.7,1.2-4.9,2.3-4.9,3.5c0,1.9,1.6,4.9,3.2,5.6
	c2.2,0.9,5.7-2.6,5.6-4.6C393.5,174.8,391.8,172.8,389.6,172.3z M290.7,690.8c-0.4-3.7,1-6.5,4.5-8c2.6-1.2,5-0.7,7.1,1.2
	s4.1,4,6,6.1c0.4,0.5,0.4,1.9,0,2.3c-5.2,5.3-10.5,10.4-15.9,15.5c-0.4,0.4-1.9,0.3-2.4-0.1c-1.9-1.8-3.7-3.7-5.5-5.6
	c-1.9-2-2.3-4.4-1.3-6.9c1.1-2.6,3-4.3,6.1-4.2c0.3,0,0.6,0,0.9-0.1C290.4,691.1,290.5,691,290.7,690.8z M293.1,690.5
	c1.6,1.9,2.9,3.4,4.2,4.9c0.8,1,1.7,1.1,2.6,0.1c0.5-0.5,1-1,1.5-1.5c3.5-3.5,3.5-3.8-0.4-6.7c-1.1-0.8-3.1-1.1-4.3-0.6
	C295.4,687.2,294.5,688.8,293.1,690.5z M285.6,698.3c1.8,2,3.2,3.8,4.8,5.1c0.3,0.3,2.1-0.9,2.9-1.6c3.2-3,3.2-3.2-0.5-6.2
	c-0.9-0.7-2.6-1.1-3.6-0.8C287.9,695.4,287.1,696.8,285.6,698.3z M835.9,578.4c-0.5,6.2-5.5,10.9-11.6,8.6c-4.8-1.8-9.6-3.4-14.5-5
	c-1.4-0.5-2.2-1.2-1.7-2.8c0.6-1.8,1.8-1.3,3.1-0.8c6.6,2.3,6.5,2.3,8.8-4.2c0.7-1.9,0.4-3-1.7-3.5c-1.5-0.4-3-1.1-4.5-1.5
	c-1.4-0.4-1.9-1.4-1.2-2.5c0.4-0.6,1.7-1.3,2.3-1.1c5.3,1.7,10.6,3.5,15.8,5.5C834,572.2,835.9,575.3,835.9,578.4z M827.8,583.8
	c2.5,0,4.7-2.2,4.8-4.7c0.1-2.9-4-6.1-7.8-6.1c-0.9,0-3.5,5.5-3.6,7.6C821.1,581.7,825.3,583.7,827.8,583.8z M510.5,147.2
	c-2.9,3.1-5.4,5.6-7.8,8.3c-0.3,0.4-0.2,1.2-0.2,1.8c0,2.9,0.2,5.8,0.1,8.6c0,0.7-1,1.4-1.6,2.1c-0.6-0.6-1.8-1.2-1.9-1.8
	c-0.4-4.5-0.6-9.1-0.9-13.6c-0.2-2.6-0.3-5.2-0.4-7.9c-0.1-1.3-0.2-2.6,1.7-2.7c1.8-0.1,2.1,0.8,2.2,2.3c0.1,1.8,0.3,3.6,0.6,6
	c0.9-0.8,1.6-1.3,2.1-1.8c2.1-2.1,4-4.3,6.2-6.3c0.6-0.6,2-1,2.7-0.7c0.6,0.3,1.1,1.6,1.2,2.5c0.4,6.9,0.7,13.8,1,20.8
	c0,0.7,0,1.6-0.4,2c-0.5,0.5-1.6,0.9-2.1,0.6c-0.7-0.4-1.3-1.4-1.4-2.1c-0.3-4.6-0.4-9.2-0.6-13.9
	C511,150.2,510.7,149.1,510.5,147.2z M198.3,495.1c2.7,2.4,5.2,5.3,8.3,7c1.7,1,4.5,0,6.8-0.1c1.2-0.1,2.5-0.4,3.5-0.2
	c0.8,0.2,1.4,1.3,2.2,1.9c-0.7,0.6-1.3,1.7-2,1.8c-6.7,0.6-13.3,1.1-20,1.6c-0.6,0-1.1,0-1.7,0.2c-1.5,0.5-2.3-0.2-2.6-1.6
	c-0.3-1.7,0.7-2,2.1-2.2c1.9-0.2,3.9-0.4,6.4-0.7c-0.9-0.9-1.3-1.5-1.8-2c-2.2-2-4.5-3.9-6.5-6c-0.7-0.7-1.1-2-1-2.9
	c0.1-0.5,1.6-1.1,2.5-1.2c7.1-0.7,14.1-1.2,21.2-1.9c1.7-0.2,2.3,0.7,2.3,1.9c0,0.7-1.1,1.7-1.8,1.8c-5.1,0.6-10.3,1-15.5,1.5
	c-0.7,0.1-1.4,0.1-2.1,0.2C198.5,494.6,198.4,494.9,198.3,495.1z M198,448.4c2.5,3,4.4,5.6,6.7,7.9c0.8,0.8,2.4,1.1,3.7,1.3
	c2.4,0.3,4.9,0.4,7.4,0.5c1.5,0.1,2.1,1,1.7,2.2c-0.2,0.7-1.4,1.5-2.1,1.4c-7.2-0.3-14.3-0.7-21.5-1.1c-1.4-0.1-2.6-0.3-2.5-2.1
	c0.1-1.8,1.3-1.9,2.7-1.9c1.9,0.1,3.7,0,6.2,0c-1.5-1.9-2.8-3.5-4.1-5c-1.2-1.4-2.5-2.7-3.5-4.3c-0.4-0.7-0.5-1.9-0.2-2.6
	c0.2-0.5,1.4-0.9,2.2-0.9c7.1,0.4,14.1,0.9,21.2,1.3c1.3,0.1,2.5,0.2,2.5,1.8c0,1.7-1.1,2.3-2.7,2.1c-4.9-0.4-9.8-0.7-14.8-1
	C200.1,448.1,199.3,448.3,198,448.4z M317.1,234.1c1.5,1.9,2.9,3.5,4.3,5.2c0.9,1.1,1.9,2.1,0.3,3.4c-1.5,1.2-2.3,0.3-3.2-0.8
	c-3.4-4.1-6.8-8-10.1-12.1c-2.9-3.5-2.3-8.3,1.2-11.4c3.8-3.4,8.6-3.5,11.8,0c3.8,4.1,7.2,8.5,10.8,12.8c0.9,1.1,0.7,2-0.3,2.9
	c-1.1,1-2,0.6-2.8-0.5c-1.1-1.4-2.3-2.9-3.6-4.2c-0.5-0.5-1.7-0.8-2.1-0.5C321.2,230.4,319.3,232.2,317.1,234.1z M309.7,223.6
	c0.5,2.1,3.6,7.4,4.9,7.3c1.4-0.2,2.8-1.5,4.1-2.4c0.8-0.6,1.7-1.2,2.3-2c0.3-0.4,0.6-1.4,0.3-1.8c-1.2-1.6-2.5-3.1-4-4.4
	c-1.4-1.2-3.2-1.4-4.6-0.3C311.5,220.9,310.7,222.4,309.7,223.6z M846.2,441.6c-3.3-2.8-5.8-5.3-8.8-7.2c-1.2-0.8-3.4-0.2-5.1,0
	c-1.8,0.1-3.6,0.6-5.4,0.6c-0.7,0-1.9-0.9-1.9-1.4c0-0.7,0.7-2.1,1.3-2.2c3.4-0.6,6.9-0.9,10.4-1.3c3.9-0.4,7.8-0.8,11.6-1.1
	c1.3-0.1,2.4-0.1,2.5,1.7c0.1,1.8-1.1,2.1-2.5,2.2c-1.7,0.2-3.5,0.3-5.8,0.6c0.9,1,1.4,1.6,2,2.2c2.2,1.9,4.5,3.6,6.5,5.7
	c0.7,0.7,1,2.1,1,3.1c0,0.3-1.5,0.8-2.3,0.9c-6.7,0.8-13.4,1.6-20.1,2.3c-1.4,0.1-3.4,0.6-3.2-1.9c0-0.7,0.9-1.8,1.5-1.9
	c4.7-0.6,9.5-1,14.2-1.6C843.2,442.2,844.4,441.9,846.2,441.6z M847.1,478.3c-2.5-2.6-4.6-5.7-7.5-7.7c-1.6-1.1-4.5-0.6-6.8-0.8
	c-1.2-0.1-2.5,0.2-3.6-0.1c-0.8-0.2-1.3-1.2-2-1.8c0.7-0.7,1.4-2,2.2-2c7.3,0,14.7,0.2,22,0.4c1.5,0,2.3,0.6,2.2,2.1
	c0,1.5-1,1.8-2.3,1.8c-2,0-3.9,0-6.5,0c0.9,1.2,1.4,2,2,2.7c1.9,2.1,3.9,4,5.6,6.2c0.6,0.7,0.7,2.1,0.5,3.1
	c-0.1,0.5-1.5,0.9-2.4,0.9c-7.1-0.1-14.2-0.3-21.3-0.4c-1.3,0-2.1-0.4-2.1-1.9c0-1.6,0.8-2.1,2.3-2c4.9,0.2,9.7,0.3,14.6,0.4
	c0.9,0,1.8-0.1,2.7-0.2C846.9,478.8,847,478.6,847.1,478.3z M842.5,417.5c-2.9-2.1-5.7-4.3-8.7-6.2c-0.7-0.5-2-0.1-3,0
	c-2.2,0.3-4.4,0.9-6.6,1.2c-1.4,0.2-2.8,0.3-3.2-1.6c-0.3-1.9,1.1-2,2.4-2.2c6.8-1.3,13.6-2.5,20.4-3.7c1.2-0.2,2.7-0.5,3,1.4
	c0.3,1.8-0.7,2.3-2.3,2.5c-1.8,0.2-3.5,0.7-5.9,1.2c1.2,1,1.9,1.6,2.6,2.1c1.9,1.4,3.9,2.6,5.6,4.1c1,0.9,1.6,2.3,2.4,3.5
	c-1.1,0.6-2.2,1.4-3.4,1.6c-6.7,1.3-13.5,2.5-20.2,3.6c-0.6,0.1-1.6-0.1-1.8-0.5c-0.4-0.6-0.6-1.7-0.3-2.2c0.4-0.6,1.4-1,2.2-1.2
	c4.6-0.9,9.2-1.7,13.9-2.5c0.9-0.2,1.7-0.4,2.5-0.6C842.3,418,842.4,417.7,842.5,417.5z M200.7,480.2c-0.2-2.8-0.8-5.3-0.4-7.6
	c0.8-4.5,4.4-6.5,9.6-6.1c4.4,0.4,7.4,3.3,7.7,7.7c0.5,5.8-2.9,9.7-8.8,9.8c-5,0.2-10.1,0-15.1,0.1c-1.5,0-2.1-0.6-2.1-2.1
	c0-3.7-0.2-7.3-0.2-11c0-0.6,0.9-1.2,1.4-1.8c0.6,0.5,1.6,1,1.6,1.5c0.2,2.4,0.2,4.8,0.1,7.2c0,1.6,0.5,2.4,2.2,2.3
	C198.2,480.1,199.6,480.2,200.7,480.2z M214.2,475.4c0-3.1-2-5.1-5.3-5.1s-5.6,1.9-5.7,4.8c-0.1,3,2.1,5,5.4,5.1
	C212,480.2,214.2,478.4,214.2,475.4z M593.6,154.8c-3.6,2.2-6.6,4.1-9.6,6c-0.5,0.3-0.7,1.2-0.8,1.9c-0.6,2.7-1.1,5.5-1.8,8.1
	c-0.2,0.7-1.3,1.7-2,1.7c-1.2,0-2.1-0.7-1.7-2.4c1.6-7.1,3-14.3,4.5-21.5c0.3-1.3,0.9-2.1,2.3-1.8c1.5,0.3,1.8,1.4,1.5,2.7
	c-0.4,1.9-0.8,3.7-1.3,6.1c1.1-0.5,1.8-0.7,2.4-1.1c2.5-1.5,4.8-3.1,7.4-4.5c0.9-0.5,2.4-0.6,3.3-0.2c0.5,0.2,0.6,1.9,0.4,2.9
	c-1.2,6.5-2.6,12.9-4,19.4c-0.1,0.5-0.1,1.3-0.4,1.6c-0.7,0.6-1.6,1.2-2.4,1.1c-0.5,0-1.3-1.4-1.2-2c1-5.3,2.1-10.6,3.2-15.9
	C593.5,156.6,593.5,156.2,593.6,154.8z M771.9,676.9c0,3.2,0,5.7,0,8.1c0,0.7,0.4,1.5,0.2,2.1c-0.3,1.4-0.9,2.7-1.4,4
	c-1.2-0.5-2.5-0.8-3.4-1.6c-5.1-4.2-10.2-8.5-15.2-12.8c-1.1-0.9-1.9-1.6-0.7-3.1c1.2-1.4,2.1-0.8,3.2,0.1c3.7,3.2,7.4,6.3,11.2,9.4
	c0.6,0.5,1.2,1,2.2,1.7c0.2-0.9,0.4-1.5,0.3-2.1c-0.1-2.8-0.2-5.6-0.5-8.3c-0.1-0.8-0.7-1.7-1.4-2.3c-2-1.8-4.1-3.6-6.2-5.3
	c-1.1-0.9-1.5-1.8-0.4-3c1-1.1,1.8-1,2.8-0.1c5.6,4.8,11.2,9.5,16.8,14.2c1,0.9,1.3,1.7,0.3,2.8c-0.9,1.1-1.8,1.1-2.9,0.2
	C775.3,679.7,773.8,678.5,771.9,676.9z M216.9,368.5c-0.5-1.4-0.7-2.2-1-2.9c-1.1-2.6-2.5-5.2-3.4-7.9c-0.3-0.9,0-2.2,0.5-3.1
	c0.2-0.4,1.8-0.3,2.6,0c6.6,2.3,13.1,4.6,19.6,6.9c1.2,0.4,2.5,0.8,1.9,2.6c-0.6,1.9-1.9,1.5-3.3,1c-4.4-1.6-8.7-3.1-13.1-4.6
	c-0.9-0.3-1.8-0.6-3.4-1c0.7,1.7,1.3,2.8,1.6,4.1c1.4,5.3,4.7,8.5,10.1,9.3c0.8,0.1,1.6,0.6,2.5,0.9c1.3,0.4,2,1.3,1.2,2.5
	c-0.4,0.6-1.8,1.3-2.4,1.1c-7-2.4-14-4.9-21-7.3c-1.4-0.5-1.6-1.4-1.2-2.6c0.4-1.2,1.2-1.5,2.5-1
	C212.5,367.1,214.4,367.7,216.9,368.5z M225,346.4c-1.1-3.2-2.3-6.4-3.4-9.6c-0.3-0.8-0.5-1.7-0.4-2.5c0.3-1.5,1.1-2.2,2.8-1.4
	c6.7,3,13.5,5.9,20.2,8.8c1.3,0.5,1.8,1.3,1.2,2.6c-0.6,1.3-1.5,1.5-2.8,0.9c-4.5-2-9.1-4-13.6-5.9c-0.8-0.3-1.6-0.6-3.1-1.1
	c1.5,4.1,2.7,7.5,4.1,10.8c0.2,0.5,1.1,0.9,1.7,1.2c2.5,1.1,5,2.2,7.5,3.3c1.2,0.5,1.8,1.2,1.2,2.6c-0.6,1.3-1.3,1.6-2.7,1
	c-6.7-3-13.5-5.9-20.2-8.8c-1.3-0.6-1.7-1.4-1.2-2.7c0.5-1.3,1.5-1.5,2.7-1c1.8,0.8,3.6,1.6,5.4,2.4
	C224.6,346.8,224.8,346.6,225,346.4z M684.5,193.1c2.9-0.6,5.9-1.3,8.8-1.9c0.8-0.2,1.6-0.6,2.3-0.5c0.9,0.1,1.9,0.5,2.5,1.1
	c0.3,0.3,0.1,1.5-0.3,2.1c-3.6,6.2-7.3,12.4-11,18.6c-0.7,1.1-1.4,2-2.8,1.1c-1.5-0.9-1.2-2-0.4-3.2c2.5-4.1,4.9-8.2,7.4-12.3
	c0.4-0.7,0.8-1.5,1.6-2.9c-2.8,0.6-5,1.3-7.2,1.5c-3.4,0.3-5.5,2-6.9,5c-0.8,1.7-1.9,3.2-2.8,4.7c-0.7,1.3-1.7,1.3-2.8,0.6
	c-1.2-0.7-1.1-1.6-0.5-2.6c3.8-6.3,7.6-12.6,11.3-18.9c0.7-1.2,1.6-1.5,2.8-0.8s1.3,1.6,0.5,2.8c-1.1,1.7-2,3.4-3,5.1
	C684.2,192.7,684.4,192.9,684.5,193.1z M752.5,690.4c3.4-0.4,5.9,0.7,7.7,3.2c2,2.7,2.2,5.8,0.1,8.4c-1.7,2.1-3.6,4-5.6,5.8
	c-0.4,0.4-1.9,0.4-2.3-0.1c-5.3-5-10.6-10.2-15.8-15.3c-1-1-1-1.9,0-2.9s1.9-0.8,2.9,0.2c1.5,1.5,3.1,3,4.6,4.6c1,1,1.7,1.1,2.8,0
	c2.9-2.9,3.1-4.7,0.5-7.9c-0.7-0.9-1.6-1.8-2.5-2.6c-1.1-1-0.9-1.9,0-2.8c0.9-0.9,1.7-0.9,2.7,0C750.1,683.5,752.8,686,752.5,690.4z
	 M753.9,704c1-1,1.9-1.7,2.7-2.6c1.3-1.4,2.1-2.9,0.9-4.7c-1.1-1.7-2.5-3.5-4.6-2.7c-1.8,0.6-3.2,2.4-4.7,3.7
	c-0.1,0.1,0.1,0.9,0.4,1.2C750.3,700.6,752,702.2,753.9,704z M563,158.2c-1.4-0.5-1.6,1-1.8,2.4c-0.4,2.4-0.7,4.7-1,7.1
	c-0.2,1.5-1,1.9-2.3,1.7c-1.3-0.3-1.8-1-1.6-2.5c1-6.7,1.9-13.4,2.8-20.1c0.1-0.8,0.1-1.8,0.5-2.3c0.5-0.6,1.6-1,2.3-0.9
	c0.5,0.1,1.4,1.2,1.3,1.8c-0.2,2.4-0.6,4.7-0.9,7.1c-0.1,0.4-0.3,0.9-0.2,1.2c1.5,2.7,4.5,1.4,6.7,2.2c0.4,0.1,1.5-0.9,1.7-1.5
	c0.5-2.2,0.7-4.5,1-6.8c0.2-1.3,0.4-2.5,2-2.4s2.1,1.2,1.9,2.7c-0.9,6.4-1.8,12.8-2.6,19.1c-0.1,0.6-0.2,1.3-0.2,1.9
	c0,1.6-0.7,2.4-2.3,2.2c-1.8-0.2-1.7-1.4-1.5-2.6c0.3-2.4,0.6-4.7,0.9-7.1c0.2-1.6-0.4-2.3-2-2.4C566.3,158.8,564.9,158.5,563,158.2
	z M457.1,158.2c-0.6-3-1.1-5.6-1.8-8.2c-0.5-1.7,0.4-2.4,1.7-2.4c0.7,0,1.8,0.9,2,1.6c1.7,7.3,3.3,14.6,4.8,21.9
	c0.1,0.6-0.8,1.9-1.3,1.9c-0.8,0-2.1-0.6-2.3-1.2c-0.8-2.6-1.4-5.2-1.9-7.9c-0.3-1.3-0.7-1.7-2.1-1.4c-6.7,1.1-6.7,1.1-5.2,7.7
	c0.2,1.1,0.4,2.2,0.7,3.3c0.4,1.5-0.3,2.3-1.6,2.2c-0.7,0-1.9-0.8-2.1-1.5c-1.7-7.3-3.4-14.6-4.8-21.9c-0.1-0.6,0.9-1.9,1.5-2
	s1.9,0.7,2.1,1.4c0.7,2.1,1.1,4.3,1.5,6.5c0.3,1.9,1,2.9,3.2,2.1c1.3-0.5,2.8-0.6,4.2-1C456.3,159.1,456.7,158.5,457.1,158.2z
	 M436.4,167.5c-2.5,0.7-4.7,1.3-6.8,2.1c-0.4,0.2-0.8,1.4-0.7,2.1c0.6,2.5,1.4,4.9,2.2,7.3c0.4,1.4,0.1,2.2-1.4,2.7
	c-1.6,0.5-2-0.4-2.4-1.6c-2.1-6.9-4.1-13.9-6.2-20.9c-0.3-1.2-0.5-2.3,1-2.7c1.5-0.5,2.4,0.2,2.8,1.7c0.6,2.2,1.3,4.4,1.9,6.7
	c0.4,1.3,1,1.7,2.5,1.3c6.3-1.7,6.3-1.6,4.5-7.8c-0.3-1-0.6-2-0.9-3c-0.4-1.3-0.1-2.1,1.3-2.5c1.5-0.5,2.1,0.2,2.4,1.4
	c2.1,7,4.1,14.1,6.2,21.1c0.4,1.3,0.2,2.2-1.2,2.6c-1.4,0.4-2.2-0.2-2.6-1.7C438.3,173.4,437.4,170.6,436.4,167.5z M811.1,319.5
	c4.3,0,7.4,2.6,8.6,6.6c1,3.7-0.1,7.2-3.4,9.1c-3.4,2-7,3.8-10.6,5.4c-3.8,1.7-7.8,0.1-10-3.7c-2.3-3.9-1.9-8.7,1.6-10.9
	c3.9-2.5,8.2-4.2,12.3-6.3C810,319.4,810.8,319.5,811.1,319.5z M802.2,337.5c4.7-1.8,9.6-3.4,13.4-6.9c1.6-1.4,1.4-3.5,0.2-5.3
	c-1.1-1.7-2.9-2.7-4.7-1.9c-4.1,1.7-8.1,3.7-11.9,5.9c-1.9,1.1-2,3.2-1.3,5.1C798.6,336.3,800,337.4,802.2,337.5z M842.9,540.4
	c0.5-2.5,1-4.7,1.5-7c0.3-1.5-0.8-1.6-1.9-1.8c-5.7-1.1-11.4-2.2-17.1-3.4c-0.9-0.2-2-0.6-2.6-1.3c-0.3-0.3,0-1.6,0.4-2.2
	c0.3-0.4,1.2-0.6,1.8-0.5c7.1,1.3,14.2,2.8,21.3,4.2c1.7,0.3,2.2,1,1.7,2.8c-1,3.9-1.7,7.9-2.4,11.9c-0.3,1.4-0.8,1.9-2.3,1.6
	c-7.2-1.5-14.4-2.9-21.5-4.3c-1.4-0.3-2-0.9-1.6-2.3c0.3-1.2,0.9-1.8,2.4-1.5c6.2,1.3,12.5,2.5,18.7,3.7
	C841.8,540.4,842.2,540.3,842.9,540.4z M230,626.5c-0.1-3.5,1.3-5.7,3.8-7.2c3.2-1.9,6.4-3.6,9.7-5.3c4.2-2.1,8.6-0.5,10.9,3.8
	c2.3,4.1,1.3,8.7-2.6,11.1c-3.2,2-6.5,3.8-9.9,5.4C236.3,637,230,632.6,230,626.5z M252.6,622c-0.5-3.9-3.6-6.2-6.9-4.7
	c-3.5,1.6-6.8,3.5-10.1,5.5c-2.4,1.4-2.9,4.1-1.6,6.3c1.3,2.2,3.7,3,6.2,1.8c3.3-1.6,6.5-3.3,9.6-5.3
	C251,624.8,251.7,623.2,252.6,622z M215.3,595.1c-0.5-0.6-1.2-1.3-1.4-2.1c-0.1-0.5,0.5-1.6,1-1.8c2.2-1,4.4-1.8,6.7-2.5
	c1.7-0.5,2.2-1.3,1.5-3.1c-2.1-5.8-2.1-5.8-7.9-3.6c-1,0.4-2.1,0.7-3.1,1.1c-1.3,0.5-1.9,0-2.4-1.1c-0.6-1.3-0.2-2,1-2.4
	c7-2.6,14-5.3,21.1-7.8c0.6-0.2,2.1,0.5,2.3,1.1c0.2,0.7-0.4,2.1-1,2.4c-2.3,1.1-4.7,1.9-7.1,2.7c-1.4,0.5-1.9,1.1-1.3,2.7
	c2.9,7.2,1.1,6.4,7.9,3.9c0.9-0.3,1.8-0.7,2.7-1c1.3-0.5,2.6-1.1,3.3,0.9c0.6,1.9-0.7,2.3-2,2.8c-4.3,1.6-8.7,3.2-13,4.8
	c-2.2,0.8-4.3,1.6-6.5,2.4C216.6,594.6,216.1,594.8,215.3,595.1z M799.8,312.8c2.7-1.6,5.1-2.9,7.5-4.4c1.2-0.7,2.2-1.4,3.2,0.3
	c0.9,1.6,0.2,2.3-1.1,3c-6.2,3.6-12.4,7.3-18.5,11c-1.1,0.7-2,0.8-2.8-0.4c-0.8-1.3-0.5-2.2,0.8-2.9c2.1-1.2,4.2-2.6,6.4-3.8
	c1.4-0.8,1.5-1.5,0.7-2.9c-3.1-5.7-3-5.7-8.5-2.4c-1,0.6-2.1,1.2-3.1,1.8c-1.1,0.7-1.9,0.6-2.6-0.5c-0.7-1.1-0.7-2.1,0.6-2.8
	c6.5-3.8,12.9-7.7,19.4-11.4c0.5-0.3,1.9,0.2,2.5,0.8c0.8,0.8,0.6,1.8-0.6,2.5c-2.2,1.3-4.4,2.6-6.6,3.9c-1.2,0.7-1.3,1.4-0.6,2.5
	C797.4,308.9,798.5,310.7,799.8,312.8z M214,391.3c-0.9-5.1-2.6-8.9-7.5-10.2c-1.5-0.4-2.3-1.1-1.9-2.7c0.5-1.8,1.8-1.4,3.1-1
	c3.3,1,4.4,1.8,7.9,6.1c0.6-0.2,1.3-0.4,1.9-0.7c3.6-1.7,7.2-1.8,10.9-0.6c1.3,0.4,1.9,1.1,1.6,2.4c-0.3,1.4-1.2,1.5-2.5,1.4
	c-2.6-0.2-5.2-0.3-7.7,0c-1,0.1-2.6,1.5-2.6,2.1c0.2,1.8,0.2,4,2.6,4.7c1.7,0.5,3.4,1,5.1,1.4c1.5,0.3,2.3,1.1,1.9,2.7
	c-0.4,1.5-1.6,1.5-2.7,1.1c-7-1.9-14-3.8-21-5.8c-0.7-0.2-1.6-1.4-1.6-2.1c0.1-1.4,1.2-1.9,2.6-1.6
	C207.2,389.5,210.3,390.4,214,391.3z M229.7,559.7c0,3.7-1.6,6.2-5.2,7.4c-3.5,1.2-7.1,2.3-10.8,3.2c-4.5,1.1-8.5-1.4-9.8-6.2
	c-1.3-4.6,0.7-8.7,5-10.2c3.4-1.2,6.8-2.2,10.3-3C225.2,549.5,229.7,553.3,229.7,559.7z M211.8,567c4.2-1.3,8.4-2.4,12.5-4
	c2.1-0.8,2.8-3.2,2.1-5.2c-0.7-2.2-2.8-3.9-4.9-3.4c-4,1-8,2.1-11.9,3.5c-2.3,0.8-3.2,3-2.6,5.2C207.6,565.5,209,566.6,211.8,567z
	 M812.9,623.5c-3.3-1.8-6.4-3.3-9.4-5c-2.1-1.2-4.3-2.3-5.8-4.1c-1.2-1.5-1.6-3.8-2.1-5.8c-0.1-0.5,1-1.4,1.6-2
	c0.6,0.6,1.6,1.2,1.7,1.8c0.4,2.7,2.1,4.4,4.4,5.6c3.9,2.1,7.8,4.3,11.8,6.3c1.9,0.9,2.5,1.9,1.3,3.9c-1.7,2.8-3.2,5.7-4.6,8.7
	c-0.7,1.5-1.6,1.7-3,0.9c-6.3-3.4-12.7-6.8-19-10.1c-1.3-0.7-1.7-1.5-1-2.9c0.8-1.5,1.7-1.2,2.9-0.5c5.3,2.8,10.6,5.5,15.8,8.5
	c1.7,1,2.6,0.6,3.3-1C811.5,626.3,812.2,625.1,812.9,623.5z M827,352.4c-1.3-6.5-1.7-6.7-7.5-4.5c-3.8,1.4-7.6,2.8-11.5,3.9
	c-2.3,0.6-4.5-0.4-6-2.2c-0.5-0.6-0.3-1.7-0.4-2.6c0.8,0,1.9-0.4,2.5,0c2.1,1.4,4.2,1.2,6.4,0.4c4.3-1.7,8.6-3.4,12.9-5.1
	c2.8-1.1,2.8-1.1,4,1.8s2.4,5.9,3.7,8.8c0.6,1.4,0.4,2.2-1.1,2.8c-6.7,2.7-13.5,5.4-20.2,8.2c-1.4,0.6-2.2,0.3-2.8-1.1
	c-0.6-1.5,0.2-2,1.4-2.5c5.4-2.2,10.8-4.4,16.2-6.6C825.4,353.2,826.2,352.8,827,352.4z M795.4,659.8c-1.1,1.4-1.4,2.2-2.1,2.6
	c-0.5,0.3-1.4,0.1-1.9-0.2c-2.1-1.4-4.1-2.8-6-4.3c-1.3-1-2-0.7-2.9,0.5c-3.8,5.1-3.9,5,1.2,8.8c0.9,0.7,1.9,1.2,2.6,2.1
	c0.5,0.6,0.8,1.7,0.5,2.3c-0.5,1.2-1.5,1.6-2.7,0.7c-6.1-4.5-12.3-8.9-18.4-13.4c-0.4-0.3-0.6-2-0.2-2.3c0.5-0.5,1.9-0.9,2.5-0.6
	c2.2,1.4,4.3,3,6.4,4.6c1.1,0.8,1.8,0.8,2.8-0.4c4.2-5.2,4.2-5.1-1.1-9c-0.9-0.7-1.8-1.4-2.7-1.9c-1.3-0.8-1.5-1.7-0.6-2.9
	s1.7-1.1,2.8-0.3c5.9,4.3,11.7,8.6,17.6,12.8C793.9,659.3,794.7,659.5,795.4,659.8z M276,690c-4.2-0.5-6.6-2.8-8.2-6.2
	c-1.3-3-0.6-6.3,2-8.7c2.8-2.5,5.6-5,8.6-7.3c3.6-2.8,8.4-2,11.4,1.7s2.9,8.3-0.5,11.4c-2.8,2.5-5.6,5-8.6,7.2
	C279.4,689,277.6,689.3,276,690z M270.2,681.6c1.1,1.4,1.9,2.9,3.1,3.8c1.5,1.2,3.4,0.9,4.9-0.3c2.8-2.2,5.6-4.5,8.2-6.9
	c2.5-2.3,2.7-4.8,0.7-6.9c-1.7-1.9-4.4-2-6.9-0.1c-2.6,2.1-5.2,4.2-7.7,6.5C271.7,678.5,271.2,679.9,270.2,681.6z M837.9,372.7
	c0,3.8-1.7,6.4-5.3,7.7c-3.3,1.2-6.6,2.3-10,3.3c-4.8,1.4-8.9-1-10.4-5.8s0.5-8.8,5.3-10.5c3-1.1,6.1-1.9,9.1-3
	C833.2,361.8,838.2,367.6,837.9,372.7z M828.9,367.5c-3.4,1.2-7.8,2.6-12,4.5c-2,0.9-2.4,3-1.6,5.2c0.8,2.2,2.6,3.5,4.6,3
	c4.2-1,8.4-2.4,12.4-4c1.9-0.8,2.8-2.7,2.1-5C833.9,368.8,832.4,367.7,828.9,367.5z M268.9,301.1c-0.2,2.7-1.7,5.4-4.8,7.2
	c-2.9,1.7-5.8,1.3-8.6-0.5c-2.7-1.8-5.5-3.5-8.2-5.4c-3.3-2.3-4.4-5.3-3.5-8.9c1-3.8,4.3-6.8,8-6.9c1.4,0,3,0.5,4.3,1.2
	c3.2,1.8,6.2,3.9,9.2,6C267.7,295.3,269,297.4,268.9,301.1z M260.5,305.7c2.5-0.2,4-1.3,4.7-3.3c0.8-2.2,0-4-1.8-5.3
	c-2.9-2-5.8-4-8.8-5.8c-2.9-1.7-5.3-1.2-6.9,1.2c-1.5,2.3-0.9,4.8,1.7,6.6c2.8,1.9,5.6,3.7,8.4,5.5
	C258.9,305.2,259.9,305.4,260.5,305.7z M547.6,158.8c-2.5,0-4.8,0.3-6.9-0.1c-3-0.6-5.1-3.4-5.1-6.5s0.2-6.2,0.5-9.3
	c0.1-0.6,1.2-1.3,1.9-1.4c1.2-0.3,2,0.5,1.9,1.8c-0.2,2.5-0.4,5.1-0.4,7.6c-0.1,3.1,1.2,4.7,3.7,4.9c3,0.3,4.6-0.9,5.1-4
	c0.3-2.3,0.2-4.6,0.3-6.9c0-1.4,0.2-2.5,2.1-2.5c1.9,0,1.9,1.2,1.9,2.6c-0.3,5.6-0.6,11.1-1.1,16.7c-0.3,3.7-3.3,6.3-7,6.3
	c-2.2,0-4.5-0.3-6.6-0.8c-0.8-0.2-1.9-1.8-1.8-2.5c0.3-1.6,1.7-1.1,2.9-0.7c0.7,0.3,1.4,0.5,2.1,0.6
	C546.5,165.4,548.2,162.8,547.6,158.8z M833.9,515c0-1.9-0.2-3.7,0-5.4c0.5-4,4-6.7,8-6.4c2.7,0.2,5.4,0.5,8,1
	c0.7,0.1,1.6,1.2,1.7,2c0.3,1.4-0.8,2-2.1,1.8c-2.2-0.3-4.4-0.5-6.6-0.8c-3.3-0.5-5.7,1-6,3.9s1.4,4.7,4.7,5.1
	c2.4,0.2,4.8,0.4,7.1,0.9c0.6,0.1,1.6,1.4,1.4,1.9c-0.3,0.7-1.3,1.7-2,1.6c-5.9-0.6-11.7-1.2-17.6-2c-4.4-0.6-6.7-5.1-5.7-10.3
	c0.3-1.5,0.9-2.9,1.6-4.2c0.4-0.6,1.5-0.6,2.4-0.9c0.2,0.8,0.5,1.7,0.4,2.5c-0.2,1.2-0.9,2.4-1.1,3.6
	C827.8,513.4,830,515.4,833.9,515z M777.5,291.2c-1.8,0.8-3.6,1.4-5.3,2.3c-1.3,0.7-2.2,0.7-3-0.6c-0.8-1.3-0.1-2,0.9-2.7
	c3-2,6.2-3,9.7-2.1c2,0.5,2.7-0.1,3-2.1c0.4-3.4,2.2-6.1,5.1-8.1c1.1-0.7,2-1,2.9,0.2c1,1.3,0.6,2.2-0.6,3c-2.2,1.4-3.3,3.6-3.9,6.1
	c-0.4,1.5-0.2,2.3,1.6,2.7c2.7,0.6,5,0.1,7.3-1.3c1.1-0.7,2.1-1.2,3.1,0.2c1,1.5,0.2,2.3-1,3.1c-2.9,2.1-6.1,2.3-9.4,1.7
	c-1.9-0.3-2.6,0.3-2.8,2.1c-0.5,3.7-2.6,6.4-5.6,8.6c-1.2,0.8-2,0.7-2.8-0.4c-0.9-1.2-0.5-1.9,0.5-2.8c1.4-1.3,2.9-2.8,3.7-4.5
	C782.7,292.8,781.9,291.7,777.5,291.2z M288.9,261c-0.2,0.5-0.4,1-0.6,1.5c-2.1,5.4-7.7,7-12.3,3.5c-2.1-1.7-4.1-3.6-6.1-5.3
	c-1-0.9-1.1-1.9-0.1-2.6c0.7-0.4,2-0.6,2.6-0.3c2.1,1.5,4,3.4,6,5.1c2.8,2.2,6.1,1.2,7.3-2.1c0.7-2.1-0.4-3.6-1.8-4.8
	c-1.6-1.5-3.3-2.8-4.9-4.2c-1.1-0.9-2.1-1.8-0.7-3.3c1.3-1.4,2.2-0.6,3.2,0.3c3.9,3.5,7.9,6.9,11.8,10.5c3.5,3.1,4,7,1,10.6
	c-1.4,1.7-3.2,3.1-5,4.3c-0.5,0.3-1.6-0.3-2.5-0.4c0.3-0.8,0.5-1.9,1.1-2.5c0.8-0.9,1.9-1.4,2.8-2.3
	C293.5,266,292.9,262.9,288.9,261z M471,155.3c1.1-0.6,1.8-1,2.5-1.3c5.1-2.4,10.6,0.1,11.6,5.6c0.6,3.3,0.8,6.6-2.2,9
	c-2.9,2.3-6.1,3-9.6,1.7c-3-1.1-4.6-3.3-5.1-6.4c-0.8-5.2-1.4-10.4-2.1-15.6c-0.2-1.3-0.2-2.7,1.6-2.8c1.9-0.2,2.1,1.2,2.3,2.6
	C470.2,150.4,470.6,152.7,471,155.3z M471.8,161.4c0,3.7,1.8,6,4.9,6c2.8,0,4.8-2,4.9-4.8c0.1-3.8-1.9-6.2-5-6.2
	C473.7,156.4,471.9,158.3,471.8,161.4z M221,520c0,4.2-2.1,7.1-6.2,7.9c-4,0.8-8.2,1.5-12.3,1.7c-4.3,0.3-7.2-2.9-8-8
	c-0.5-3.5,1.8-7.3,5.2-8.5c1.3-0.5,2.6-0.8,3.2,0.9c0.6,1.6-0.2,2.3-1.7,2.7c-2.6,0.8-3.8,2.9-3.3,5.3c0.4,2.2,2.3,3.8,4.9,3.6
	c3.8-0.3,7.6-0.9,11.3-1.6c2.5-0.5,4-2.7,3.7-4.9c-0.3-2.4-2-4.2-4.6-4.3c-1.8-0.1-2.9-0.6-2.5-2.5c0.4-1.9,2-1.6,3.3-1.4
	C218.4,511.7,221,515.2,221,520z M197.3,409.1c0-5.2,3.5-9.1,8-8.9c1.3,0,2.7,0.1,2.7,2c0,1.7-1.1,2-2.6,2c-2.9,0-4.6,1.6-5,4.2
	c-0.3,2.2,1.3,4.4,3.9,5c3.5,0.8,7,1.5,10.5,2.1c2.6,0.4,4.7-1,5.4-3.3s-0.3-4.5-2.9-5.6c-1.6-0.6-2.3-1.6-1.6-3.1
	c0.7-1.6,2.1-1,3.3-0.5c3.8,1.5,5.4,5.6,4.2,10.2c-1,3.9-4.8,6.7-8.6,6.1s-7.5-1.3-11.2-2.3C199.3,416,197.3,413.2,197.3,409.1z
	 M269.2,647.9c3.5,0.3,6.6,2.6,8,6.2c1.3,3.3,0.7,6.6-2.1,8.9c-3.1,2.6-6.4,5.1-9.8,7.3c-3.5,2.3-8,1.1-10.6-2.4
	c-2.8-3.8-2.7-8.2,0.3-11c0.8-0.8,1.7-1.7,2.8-0.5c1,1.1,1.3,2,0,3.2c-2.1,2.1-2.2,4.4-0.6,6.4c1.6,1.9,4.1,2.3,6.4,0.7
	c2.9-2,5.8-4,8.5-6.2c2.3-1.8,2.7-4.2,1.3-6.3c-1.4-2.2-3.6-2.8-6.2-1.6c-1.4,0.7-2.5,0.6-3.1-0.9c-0.7-1.5,0.4-2.2,1.6-2.7
	C266.9,648.4,268.1,648.2,269.2,647.9z M834.4,565.7c-6.5,0-9.7-4.3-8.1-10.6c0.8-3.1,0.8-3.1-2.3-4c-1.5-0.4-3.1-0.7-4.6-1.3
	c-0.7-0.3-1.3-1.4-1.3-2.2c0-1.4,1.1-1.9,2.4-1.5c7.1,1.9,14.1,3.8,21.2,5.8c1.3,0.3,1.9,1.1,1.4,2.5c-0.7,2.2-1.1,4.5-1.9,6.6
	C839.9,564.1,837.5,565.7,834.4,565.7z M829.1,557.2c-0.2,2.1,0.9,3.3,2.7,4.1c3.7,1.6,6,0.2,7.1-4c0.4-1.4,0-2.1-1.3-2.5
	c-1.8-0.5-3.7-1-5.5-1.5c-1.4-0.4-2.3-0.1-2.5,1.6C829.6,555.6,829.3,556.4,829.1,557.2z M256.3,277.2c0.6-3.9,2.4-6.5,5.4-8.2
	c2.4-1.4,5-1.3,7.5,0c1,0.6,2,1.2,1.2,2.6c-0.7,1.2-1.5,1.6-2.9,0.9c-3-1.4-5.2-0.9-6.6,1.5c-1.3,2.2-0.7,4.5,1.7,6.5
	c2.6,2,5.2,4,7.8,5.9c2.3,1.7,4.8,1.5,6.5-0.3c1.9-2,1.9-4.3-0.3-6.6c-1-1.1-1.2-2-0.1-3c1.2-1.2,2.1-0.5,3.1,0.4
	c2.8,2.8,3,6.9,0.4,10.5c-2.7,3.7-7,5.2-10.4,3c-3.8-2.4-7.3-5.1-10.7-8.1C257.6,281.1,257.1,278.9,256.3,277.2z M355.9,215.1
	c-2.5,0.2-4.8-0.9-6.3-3.2c-2.1-3.1-4.1-6.3-6-9.5c-1.8-3.1-1.3-7,1.2-9.5c2.7-2.8,7-3.9,10.1-2.4c1,0.5,1.9,1.4,2.8,2.2
	c0.8,0.8,1.4,1.8,0.1,2.8c-1.1,0.9-2,0.9-3.1-0.3c-2-2.2-4.6-2.5-6.6-1c-2.1,1.6-2.5,3.9-0.8,6.6c1.6,2.7,3.3,5.4,5.1,8.1
	c1.8,2.8,4,3.5,6.5,2.3c2.3-1.2,3.1-3.3,2-6.3c-0.5-1.4-0.2-2.3,1.1-2.9c1.5-0.7,2,0.3,2.5,1.4C366.9,208.8,362.5,215,355.9,215.1z
	 M663.9,201.1c-7,0-11-6.3-7.9-12.6c1.5-3.2,3-6.3,4.8-9.4c2.2-3.7,6.6-4.8,10.7-2.8c4.1,2,6.1,6,4.7,9.8c-0.4,1.2-0.9,2.4-2.5,1.8
	c-1.4-0.5-1.7-1.4-1.3-2.8c0.8-3-0.2-5-2.7-6c-2.3-0.9-4.5,0-5.9,2.6c-1.6,2.9-3.1,5.9-4.5,9c-1.3,2.7-0.7,5.2,1.5,6.5
	c2.1,1.3,4.7,0.7,6.5-1.6c1-1.4,1.9-1.2,3-0.5c1.4,0.9,0.8,1.9,0.2,2.8C668.9,200.1,666.7,201.3,663.9,201.1z M202,422.6
	c5.8,0.1,8.6,3.3,8.1,8.9c-0.4,3.9-0.3,4,3.2,4.1c1.4,0,2.9,0.1,4.2,0.6c0.8,0.3,1.7,1.2,1.8,1.9c0.1,1.2-0.7,2-2.2,1.8
	c-4.6-0.6-9.1-1.1-13.7-1.6c-2.6-0.3-5.2-0.7-7.8-1c-1.6-0.2-2.3-1-2-2.5c0.3-2.4,0.5-4.8,1.1-7.1
	C195.4,424.4,198.1,422.6,202,422.6z M201.9,426.5c-3.2,0-4.4,1.3-4.9,5.2c-0.1,1.2,0.1,1.9,1.5,2.1c2,0.2,3.9,0.6,5.9,0.8
	c0.6,0,1.7-0.3,1.9-0.8C208.3,429.9,206.1,426.6,201.9,426.5z M642.7,181.4c-1.1,2.5-2,4.6-2.9,6.8c-0.5,1.2-0.9,2.2-2.6,1.5
	c-1.5-0.6-1.6-1.6-1-2.9c2.8-6.6,5.6-13.2,8.4-19.8c0.6-1.4,1.4-1.8,2.8-1.1c1.9,0.9,4,1.6,5.9,2.6c4,2.1,5.2,5.5,3.4,9.9
	c-1.9,4.5-5.2,6.1-9.6,4.7C645.7,182.6,644.4,182,642.7,181.4z M648.9,179.9c3,0.7,5.7-4.4,4.4-6.5c-1-1.6-3.1-2.5-4.8-3.4
	c-0.2-0.1-1.4,1.7-2,2.6c-0.5,0.7-0.7,1.6-1,2.4c-1.4,3.3-0.8,4.3,2.7,4.8C648.4,179.9,648.8,179.9,648.9,179.9z M422.6,182.9
	c-0.6,0.5-1,1.1-1.7,1.3c-3.2,1.3-6.4,2.4-9.6,3.6c-1.5,0.6-2.2,0-2.7-1.4c-2.5-6.7-5-13.4-7.5-20.1c-0.5-1.4-0.1-2.1,1.2-2.5
	c3.2-1.2,6.4-2.5,9.6-3.5c0.6-0.2,1.5,0.5,2.3,0.7c-0.4,0.7-0.6,1.8-1.3,2.1c-1.9,1-4,1.7-6,2.4c-1.3,0.4-1.5,1.1-1.2,2.3
	c1.5,5.6,1.5,5.6,7,3.6c0.7-0.3,1.5-0.8,2.2-0.7c0.7,0,1.4,0.5,2.1,0.8c-0.3,0.7-0.5,1.8-1,2.1c-1.4,0.8-3,1.2-4.4,1.7
	c-0.5,0.2-1.2,0.3-1.5,0.6c-1.8,2.5,0.9,4.3,1.2,6.5c0.2,1.3,1.1,1.7,2.3,1.2c2.2-0.8,4.3-1.8,6.5-2.4c0.7-0.2,1.7,0.4,2.6,0.7
	C422.6,182.3,422.6,182.6,422.6,182.9z M633.4,185.3c-1.5,0.6-2.5,1.4-3.3,1.1c-3.5-1.1-7-2.3-10.4-3.7c-0.5-0.2-1-1.5-0.8-2
	c2.4-7,4.9-14,7.3-21c0.5-1.3,1.2-1.5,2.4-1c3.2,1.2,6.5,2.2,9.7,3.5c0.6,0.3,1.4,1.4,1.3,2c-0.2,1.3-1.3,1.3-2.4,0.9
	c-2-0.8-4.1-1.4-6.1-2.2c-1.2-0.5-1.8-0.1-2.2,1c-0.1,0.2-0.1,0.3-0.2,0.5c-2.1,6.3-2.4,4.8,3.1,6.8c0.7,0.3,1.6,0.4,2.2,0.9
	c0.6,0.4,1.2,1.3,1.2,1.8c-0.1,1.3-1.1,1.5-2.3,1.1c-1.7-0.6-3.5-1.2-5.2-1.9c-1.4-0.6-1.9-0.1-2.5,1.2c-2.4,6-2.4,6,3.7,8.3
	c0.8,0.3,1.7,0.5,2.5,0.9C631.8,183.9,632.2,184.4,633.4,185.3z M806.1,642.4c0,0.2-0.1,0.3-0.1,0.5c-2.1,3.4-4.2,6.8-6.4,10.1
	c-0.2,0.3-1.5,0.3-1.8,0c-0.4-0.4-0.8-1.5-0.6-1.9c1-1.9,2.1-3.8,3.4-5.5c1-1.4,1-2.3-0.6-3.2c-5.6-3.3-4-3.4-7.3,1.7
	c-0.4,0.5-0.7,1.1-1,1.6c-0.5,1-1.2,1.7-2.4,1c-1.4-0.8-0.9-1.8-0.2-2.8c0.9-1.4,1.7-2.9,2.7-4.3c0.8-1.1,0.7-1.9-0.5-2.7
	c-5.4-3.8-5.4-3.9-8.9,1.8c-0.5,0.8-0.9,1.7-1.6,2.4c-0.4,0.4-1.4,0.6-1.8,0.4c-0.5-0.4-1.1-1.5-0.9-1.8c2-3.4,4.1-6.8,6.4-10.1
	c0.2-0.3,1.5-0.3,2.1,0c6.2,3.8,12.4,7.7,18.5,11.5c0.5,0.3,1.2,0.5,1.8,0.8C806.5,642,806.3,642.2,806.1,642.4z M341.9,210.5
	c0.1,3.2-1.8,5.1-4.1,6.6c-2,1.3-2.4,2.4-0.7,4.3c1.1,1.2,1.9,2.7,3,4c0.9,1.2,0.6,2-0.5,2.8c-1,0.8-1.8,0.7-2.6-0.4
	c-4.3-6-8.7-12.1-13.1-18.1c-0.8-1.1-0.7-1.8,0.4-2.6c1.6-1.1,3.2-2.4,4.9-3.5c2.4-1.7,5.1-2.5,7.8-0.9
	C340,204.5,341.8,207,341.9,210.5z M338.3,210.8c-0.4-2.1-1.4-3.9-3.5-4.9c-2.4-1.2-4,0.4-5.5,1.7c-0.5,0.4-0.7,1.7-0.4,2.3
	c1.1,1.8,2.4,3.5,3.7,5.2c0.3,0.4,0.9,0.7,1.3,0.7C335.5,215.6,338.2,212.5,338.3,210.8z M723.1,213.3c-1.4,1.8-2.7,3.2-3.7,4.8
	c-0.3,0.4,0,1.7,0.4,2.1c1.3,1.3,3,2.2,4.2,3.5c0.5,0.5,0.5,1.7,0.7,2.6c-0.9,0-2,0.2-2.6-0.2c-1.5-0.9-2.8-2.1-4.2-3.2
	c-1.1-1-1.8-0.7-2.8,0.3c-4.3,4.9-4.3,4.9,0.9,9c0.7,0.5,1.6,1,2,1.7c0.4,0.6,0.5,1.7,0.2,2.1c-0.3,0.4-1.6,0.6-2.1,0.2
	c-3-2.2-5.9-4.4-8.6-6.8c-0.4-0.4-0.6-1.8-0.2-2.3c4.5-5.9,9.1-11.7,13.8-17.5c0.4-0.4,1.8-0.5,2.3-0.2c2.9,2,5.6,4.2,8.3,6.5
	c0.5,0.4,0.4,1.5,0.6,2.3c-0.8,0.1-1.9,0.5-2.4,0.1C727.5,216.9,725.5,215.2,723.1,213.3z M776.8,265.8c-0.5,0.2-0.7,0.3-0.8,0.3
	c-5.6,3.7-5.6,3.7-1.5,8.8c0.3,0.4,0.9,0.8,1,1.3c0.1,0.7-0.1,1.5-0.2,2.3c-0.7-0.1-1.7,0.1-2.1-0.3c-1.4-1.4-2.6-3-3.8-4.6
	c-0.7-1-1.5-1.2-2.4-0.3c-0.1,0.1-0.1,0.1-0.2,0.2c-5.4,3.8-5.4,3.8-1.3,8.9c0.6,0.7,1.4,1.4,1.7,2.3c0.2,0.5,0.1,1.7-0.2,1.9
	c-0.5,0.3-1.8,0.4-2.1,0c-2.4-2.8-4.8-5.8-7-8.8c-0.3-0.5-0.1-1.9,0.4-2.3c5.7-4.7,11.4-9.2,17.1-13.8c1.1-0.9,1.8-0.6,2.6,0.4
	c2.1,2.7,4.4,5.3,6.4,8.1c0.4,0.5,0.1,1.6,0.1,2.4c-0.9-0.2-2.1,0-2.6-0.6C780,270,778.5,267.9,776.8,265.8z M233.7,599.4
	c1.1,1.9,2.4,3.5,3.1,5.3c1.2,3.2,0.1,6.3-2.9,8c-2.5,1.4-5.1,2.6-7.8,3.6c-0.6,0.2-2.1-0.4-2.4-1c-0.3-0.6,0.3-2,0.9-2.4
	c2-1.2,4.2-2,6.3-3c2.6-1.3,3.5-3.4,2.4-5.7s-3.2-3.1-5.8-2c-2.1,0.9-4.2,1.8-6.3,2.8c-1.3,0.6-2.1,0.3-2.7-0.9
	c-0.7-1.4,0-2.1,1.2-2.6c6.7-3,13.4-6.1,20-9.1c1.3-0.6,2.1-0.4,2.7,0.9c0.6,1.3,0.1,2.1-1.1,2.6
	C238.6,597.1,236.1,598.3,233.7,599.4z M697.4,222.4c-1.4-1-2.3-1.4-2.6-2c-0.3-0.5,0-1.5,0.3-2.1c3.2-4.8,6.5-9.5,9.8-14.2
	c1.9-2.7,1.8-2.6-0.7-4.6c-1-0.8-3.5-1.1-2-3.2c1.6-2.3,2.8,0,3.9,0.7c3.3,2.1,6.5,4.4,9.6,6.7c0.5,0.4,0.6,1.5,0.9,2.2
	c-0.9,0.1-2,0.6-2.6,0.3c-4.2-2.3-4.2-2.3-6.8,1.5c-2.9,4.1-5.7,8.3-8.6,12.4C698.1,220.9,697.8,221.7,697.4,222.4z M245.9,648.2
	c0.9,1.4,1.8,2.6,2.4,4c0.3,0.7-0.2,1.6-0.3,2.4c-0.8-0.3-2-0.3-2.3-0.8c-2.6-3.8-5-7.8-7.4-11.8c-0.3-0.5,0.3-1.4,0.4-2.2
	c0.7,0.2,1.5,0.3,2.2,0.6c0.2,0.1,0.3,0.4,0.4,0.6c2.7,4.1,1.7,4.2,6.2,1.3c4.4-2.8,8.8-5.5,13.2-8.3c1.2-0.8,2.4-1.4,3.4,0.3
	s-0.2,2.2-1.3,2.9c-4.7,3-9.5,5.9-14.2,8.9C247.7,646.9,246.9,647.5,245.9,648.2z M763.6,250.7c-1.4-1.6-2.5-2.6-3.3-3.9
	c-0.4-0.6-0.1-1.6-0.1-2.5c0.8,0.1,1.9,0,2.3,0.4c3.1,3.2,6.1,6.5,9.1,9.9c0.7,0.8,1.3,1.6,0.2,2.7c-1.1,1-1.8,0.4-2.6-0.4
	c-3.3-3.4-3.3-3.4-6.8-0.2c-3.8,3.5-7.7,7-11.5,10.5c-1.1,1-1.9,1.3-3,0.1c-1.1-1.2-0.7-2,0.3-3c4.2-3.8,8.4-7.6,12.6-11.4
	C761.8,252.2,762.6,251.5,763.6,250.7z M375.2,178.9c-0.6,0.5-1.2,1.1-1.9,1.5c-4,2.3-3.9,1.4-1.6,5.7c2.5,4.6,5,9.3,7.5,13.9
	c0.6,1.2,1.3,2.4-0.4,3.2c-1.5,0.8-2.3-0.1-3-1.3c-2.8-5.2-5.6-10.4-8.3-15.6c-0.9-1.7-1.8-2-3.3-1c-0.8,0.5-1.6,1.1-2.5,1.3
	c-0.6,0.1-1.6-0.3-2-0.8c-0.2-0.3,0.1-1.6,0.5-1.9c4.2-2.4,8.5-4.7,12.9-6.9c0.5-0.3,1.6,0.6,2.4,0.9
	C375.2,178.3,375.2,178.6,375.2,178.9z M727.2,246.2c-0.8-0.7-1.7-1.1-1.8-1.7c-0.2-0.7,0.1-1.7,0.6-2.3c3-3.5,6.1-6.9,9.2-10.4
	c0.4-0.4,0.8-0.8,1.1-1.2c3.1-3.4,3-3.4-0.2-6.7c-0.5-0.5-0.4-1.7-0.5-2.6c0.9,0.1,2-0.2,2.6,0.3c3.3,2.8,6.5,5.7,9.7,8.6
	c0.9,0.8,1.7,1.6,0.6,2.8c-1.2,1.3-2,0.3-2.8-0.5c-3.3-2.9-3.3-2.9-6.3,0.5c-3.5,3.9-7,7.9-10.6,11.8
	C728.4,245.2,727.8,245.6,727.2,246.2z M844.8,397.2c-0.5,0.4-1,1.2-1.6,1.3c-0.5,0.1-1.4-0.6-1.6-1.2c-0.6-1.8-1-3.7-1.5-5.5
	c-0.4-1.7-1-2.4-3-1.8c-5.7,1.6-11.4,3-17.2,4.3c-0.9,0.2-2.3-0.1-2.8-0.7c-1-1.2-0.7-2.4,1.1-2.8c7.2-1.8,14.4-3.7,21.6-5.4
	c0.6-0.1,1.9,0.5,2,1C842.9,389.8,843.8,393.3,844.8,397.2z M241.4,303.3c-0.9,1.6-1.7,3-2.4,4.4c-2.4,4.3-2.9,3.5,1.6,6.1
	c4.6,2.6,9.1,5.2,13.7,7.8c1.2,0.7,2.2,1.4,1.2,3c-0.9,1.5-1.9,1.1-3.2,0.4c-6-3.5-12-6.9-18.1-10.3c-1.7-0.9-2.1-1.8-1-3.6
	c1.7-2.7,3.2-5.5,4.8-8.3c0.3-0.5,1.1-0.9,1.6-0.8C240.3,302.2,240.7,302.8,241.4,303.3z M491.1,168.5c-0.3-0.4-1-1-1.1-1.8
	c-0.7-4.2-1.3-8.3-1.8-12.5c-0.4-3.1-0.6-6.2-1.2-9.2c-0.3-1.5,0.3-2.1,1.5-2.4c1.4-0.4,2,0.4,2.2,1.7c0.6,4.2,1.2,8.4,1.8,12.5
	c0.4,3.2,0.7,6.3,1.2,9.5C494,168.1,493.1,168.5,491.1,168.5z M214.9,544.8c-0.4,0.4-0.8,1.2-1.5,1.3c-0.4,0.1-1.4-0.6-1.5-1.2
	c-0.7-2.5-1.3-5.1-1.7-7.6c-0.1-0.5,0.6-1.2,0.9-1.8c0.7,0.4,1.8,0.7,1.9,1.2C213.7,539.2,214.2,541.8,214.9,544.8z M212.6,341.9
	c-1.2-0.9-2.5-1.4-2.5-2c-0.1-1.4,1-1.4,2.2-1.3c0.6,0,1.5-0.5,1.8-1.1c0.2-0.4-0.1-1.5-0.5-1.8c-1-0.9-1.6-1.8-0.4-2.7
	c0.4-0.3,2.2,0.5,2.4,1c0.5,1.5,0.9,3.3,0.4,4.6C215.6,339.9,213.9,340.7,212.6,341.9z M854.5,436c0-2.2,1.3-4.1,3.1-4.2
	c0.5,0,1.1,0.4,1.6,0.7c-0.3,0.6-0.4,1.2-0.8,1.7c-0.5,0.8-1.2,1.4-1.8,2.1c0.7,0.6,1.4,1.1,2.1,1.7c0.5,0.4,0.8,1,1.2,1.5
	c-0.5,0.3-1.1,0.9-1.6,0.9C856.1,440.4,854.6,438.5,854.5,436z M505.5,138.7c-2,0-3.8-1.5-4-3.4c0-0.5,0.5-1.1,0.7-1.7
	c0.6,0.3,1.2,0.5,1.7,0.9c0.7,0.6,1.2,1.3,1.8,1.9c0.7-0.7,1.3-1.4,2-2c0.5-0.4,1.2-0.7,1.8-1c0.2,0.6,0.7,1.3,0.6,1.8
	C509.7,137.3,507.7,138.8,505.5,138.7z M629.7,265.9c2.9,1.5,5.8,2.7,8.5,4.3c0.6,0.4,1,1.9,0.8,2.7c-2.5,9.3-5,18.6-7.7,27.9
	c-0.7,2.2-0.2,3.3,1.8,4.6c6.3,4,12.5,8.3,18.7,12.6c0.8,0.6,1.6,1.3,2.5,2.2c-2.3,3.1-4.5,6-6.6,8.7c-83.6-55.4-166.8-55.4-250.6,0
	c-1.8-2.4-4-5.2-5.9-8c-0.2-0.3,0.5-1.7,1.2-2.2c6.3-4.4,12.7-8.9,19.2-13.1c2-1.3,2.7-2.3,2-4.7c-2.7-9.2-5.1-18.4-7.8-27.6
	c-0.5-1.8-0.3-2.7,1.5-3.5c2.6-1.1,5.1-2.5,7.9-3.8c2.1,3.3,4.1,6.5,6.1,9.6c3.6,5.7,7.3,11.3,10.8,17c0.9,1.5,1.8,1.7,3.3,1
	c13.1-6.1,26.9-10.1,40.9-13.3c1.6-0.4,2.5-1,2.3-2.9c-0.4-4.1-0.7-8.3-0.8-12.4c-0.3-5.5-0.3-11-0.6-16.5c-0.1-1.7,0.6-2.5,2.2-2.7
	c2.9-0.5,5.8-1.1,8.9-1.7c1.4,4.1,2.7,8,3.9,11.9c2,6,4,12,5.8,18c0.6,1.9,1.5,2.3,3.6,2.2c9.5-0.5,19-0.7,28.5-0.7
	c4.8,0,9.6,0.5,14.3,0.9c1.7,0.1,2-0.8,2.4-2c2.7-8.2,5.4-16.4,8.1-24.6c0.4-1.1,0.9-2.3,1.1-3.4c0.4-1.9,1.4-2.4,3.2-2
	c2.2,0.6,4.5,1,6.8,1.4c1.4,0.3,2.1,0.9,2,2.4c-0.5,8.4-0.7,16.7-1.4,25.1c-0.5,6.2-0.7,6.2,5.2,7.6c13,3.3,25.9,7,38.1,12.8
	c1.6,0.8,2.3,0.1,3-1.1c5.1-8,10.2-16.1,15.3-24.1C628.5,267.6,629.1,266.8,629.7,265.9z M639.8,339.3c-1.2,0.5-1.8,0.7-2.3,0.9
	c-0.2,0.1-0.5,0-0.7,0c-9.5,0.7-18.1-1-26.8-5.9c-19.9-11.2-41.6-17.9-64.2-21.3c-11-1.7-22.1-2.1-33.2-1.4
	c-23.5,1.5-45.9,7.6-67.3,17.4c-6.8,3.1-13.3,6.9-20,10.3c-1,0.5-2.1,0.9-3.1,0.9c-4.7,0.1-9.4,0.1-14.1,0c-0.9,0-1.7-0.3-3.3-0.6
	c1.3-1,1.9-1.6,2.6-2c25.7-18.1,53.9-30,84.8-35.3c11.4-2,22.9-3.1,34.5-2.7c25.8,0.9,50.5,6.9,74.1,17.2
	c12.6,5.6,24.6,12.3,35.8,20.2C637.5,337.5,638.3,338.2,639.8,339.3z M527.9,665.4c0.1-4.7,1.3-5.8,6-5.3c2.7,0.3,4.2,1.5,4.7,4.2
	c0.3,1.4,0.4,2.8,0.4,4.2c-0.1,3.2-2,5.3-4.8,5.5c-3.5,0.2-5.4-1.2-6-4.6C527.9,668.1,527.9,666.8,527.9,665.4z M507.2,653
	c0.1,4.8-0.6,5.4-5.4,5.2c-3-0.1-4.6-1.3-5.2-4.2c-0.3-1.3-0.4-2.7-0.4-4c0.1-3.3,1.8-5.5,4.6-5.7c3.7-0.3,5.7,1.2,6.3,4.9
	C507.4,650.5,507.2,651.8,507.2,653z M523.1,820.9c-93.2,0-180.9-36.3-246.8-102.2S174.1,565.1,174.1,471.9S210.4,291,276.3,225.1
	s153.6-102.2,246.8-102.2S704,159.2,769.9,225.1s102.2,153.6,102.2,246.8s-36.3,180.9-102.2,246.8S616.3,820.9,523.1,820.9z
	 M523.1,126.9c-190.2,0-345,154.8-345,345s154.8,345,345,345s345-154.8,345-345S713.4,126.9,523.1,126.9z"/>
</svg>
